<svg width="24" height="24" viewBox="0 0 24 24" fill="none" xmlns="http://www.w3.org/2000/svg">
<path d="M12 0.625C15.0168 0.625 17.9101 1.82343 20.0433 3.95666C22.1766 6.08989 23.375 8.98316 23.375 12C23.375 15.0168 22.1766 17.9101 20.0433 20.0433C17.9101 22.1766 15.0168 23.375 12 23.375C8.98316 23.375 6.08989 22.1766 3.95666 20.0433C1.82343 17.9101 0.625 15.0168 0.625 12C0.625 8.98316 1.82343 6.08989 3.95666 3.95666C6.08989 1.82343 8.98316 0.625 12 0.625ZM12 10.6204L9.35775 7.97813C9.1748 7.79518 8.92667 7.6924 8.66794 7.6924C8.40921 7.6924 8.16107 7.79518 7.97813 7.97813C7.79518 8.16107 7.6924 8.40921 7.6924 8.66794C7.6924 8.92667 7.79518 9.1748 7.97813 9.35775L10.6204 12L7.97813 14.6423C7.88754 14.7328 7.81568 14.8404 7.76665 14.9587C7.71763 15.0771 7.6924 15.204 7.6924 15.3321C7.6924 15.4602 7.71763 15.587 7.76665 15.7054C7.81568 15.8237 7.88754 15.9313 7.97813 16.0219C8.06871 16.1125 8.17626 16.1843 8.29461 16.2333C8.41297 16.2824 8.53983 16.3076 8.66794 16.3076C8.79605 16.3076 8.9229 16.2824 9.04126 16.2333C9.15962 16.1843 9.26716 16.1125 9.35775 16.0219L12 13.3796L14.6423 16.0219C14.7328 16.1125 14.8404 16.1843 14.9587 16.2333C15.0771 16.2824 15.204 16.3076 15.3321 16.3076C15.4602 16.3076 15.587 16.2824 15.7054 16.2333C15.8237 16.1843 15.9313 16.1125 16.0219 16.0219C16.1125 15.9313 16.1843 15.8237 16.2333 15.7054C16.2824 15.587 16.3076 15.4602 16.3076 15.3321C16.3076 15.204 16.2824 15.0771 16.2333 14.9587C16.1843 14.8404 16.1125 14.7328 16.0219 14.6423L13.3796 12L16.0219 9.35775C16.1125 9.26716 16.1843 9.15962 16.2333 9.04126C16.2824 8.9229 16.3076 8.79605 16.3076 8.66794C16.3076 8.53983 16.2824 8.41297 16.2333 8.29461C16.1843 8.17626 16.1125 8.06871 16.0219 7.97813C15.9313 7.88754 15.8237 7.81568 15.7054 7.76665C15.587 7.71763 15.4602 7.6924 15.3321 7.6924C15.204 7.6924 15.0771 7.71763 14.9587 7.76665C14.8404 7.81568 14.7328 7.88754 14.6423 7.97813L12 10.6204Z" fill="#9E9A9A"/>
</svg>
