<svg width="16" height="9" viewBox="0 0 16 9" fill="none" xmlns="http://www.w3.org/2000/svg">
<path d="M7.99992 2.753C8.39394 2.753 8.78409 2.83061 9.14811 2.98139C9.51214 3.13217 9.84289 3.35318 10.1215 3.63179C10.4001 3.9104 10.6211 4.24116 10.7719 4.60518C10.9227 4.9692 11.0003 5.35936 11.0003 5.75338C11.0003 6.14739 10.9227 6.53755 10.7719 6.90157C10.6211 7.26559 10.4001 7.59635 10.1215 7.87496C9.84289 8.15357 9.51214 8.37458 9.14811 8.52536C8.78409 8.67614 8.39394 8.75375 7.99992 8.75375C7.20417 8.75375 6.44101 8.43764 5.87833 7.87496C5.31566 7.31228 4.99955 6.54912 4.99955 5.75338C4.99955 4.95763 5.31566 4.19447 5.87833 3.63179C6.44101 3.06911 7.20417 2.753 7.99992 2.753ZM7.99992 3.878C7.50254 3.878 7.02553 4.07558 6.67383 4.42728C6.32213 4.77899 6.12455 5.25599 6.12455 5.75338C6.12455 6.25076 6.32213 6.72776 6.67383 7.07947C7.02553 7.43117 7.50254 7.62875 7.99992 7.62875C8.4973 7.62875 8.97431 7.43117 9.32601 7.07947C9.67771 6.72776 9.87529 6.25076 9.87529 5.75338C9.87529 5.25599 9.67771 4.77899 9.32601 4.42728C8.97431 4.07558 8.4973 3.878 7.99992 3.878ZM7.99992 0.125C11.4604 0.125 14.4462 2.4875 15.2753 5.79838C15.2951 5.87067 15.3003 5.9462 15.2905 6.02052C15.2807 6.09485 15.2562 6.16647 15.2183 6.23117C15.1805 6.29588 15.1301 6.35236 15.0701 6.39731C15.0101 6.44226 14.9417 6.47476 14.869 6.49291C14.7962 6.51105 14.7206 6.51448 14.6465 6.50298C14.5725 6.49148 14.5014 6.46529 14.4376 6.42595C14.3738 6.38661 14.3185 6.33491 14.275 6.27389C14.2314 6.21287 14.2005 6.14376 14.184 6.07062C13.8359 4.69393 13.0384 3.47276 11.9178 2.60057C10.7972 1.72838 9.41763 1.25505 7.9976 1.25556C6.57758 1.25608 5.19834 1.73041 4.07837 2.60342C2.95841 3.47642 2.16177 4.69818 1.81467 6.07513C1.77756 6.2189 1.6851 6.34217 1.55747 6.41805C1.42983 6.49393 1.27737 6.51626 1.13333 6.48018C0.989293 6.4441 0.865366 6.35252 0.788577 6.22543C0.711788 6.09834 0.688366 5.94604 0.72342 5.80175C1.13033 4.18002 2.06729 2.74067 3.38558 1.71221C4.70386 0.683756 6.32792 0.125124 7.99992 0.125Z" fill="black"/>
</svg>
