<svg width="200" height="68" viewBox="0 0 206 68" fill="none" xmlns="http://www.w3.org/2000/svg">
<path d="M91.7725 63.2769H87.0176V53.5H91.7636V54.52H88.0076V57.6668H91.5371V58.6868H88.0076V62.2875H91.7636L91.7725 63.2769Z" fill="#231F20"/>
<path d="M95.049 59.5232L92.8292 55.9531H93.9302L95.6129 58.7582L97.2866 55.9531H98.3788L96.1589 59.5232L98.4942 63.2769H97.3976L95.6218 60.3086L93.8148 63.2769H92.7227L95.049 59.5232Z" fill="#231F20"/>
<path d="M102.312 63.4093C101.914 63.4365 101.515 63.3629 101.145 63.1937C100.774 63.0245 100.441 62.7638 100.168 62.4301C99.6227 61.6518 99.3504 60.6678 99.4039 59.6709C99.3466 58.6468 99.6218 57.6346 100.176 56.8302C100.457 56.4814 100.802 56.2089 101.186 56.0324C101.57 55.856 101.984 55.78 102.396 55.8101C102.705 55.8113 103.013 55.8507 103.315 55.9274C103.565 55.9815 103.808 56.0706 104.039 56.1926L103.741 57.1362C103.515 57.0342 103.282 56.9524 103.044 56.8914C102.824 56.833 102.6 56.8005 102.374 56.7945C101.078 56.7945 100.43 57.7448 100.43 59.6454C100.389 60.3764 100.556 61.1028 100.905 61.7161C101.07 61.9596 101.285 62.1528 101.53 62.2791C101.775 62.4053 102.044 62.4607 102.312 62.4403C102.873 62.4317 103.428 62.2984 103.946 62.0476V63.0268C103.436 63.3049 102.875 63.4362 102.312 63.4093Z" fill="#231F20"/>
<path d="M108.133 63.4097C107.723 63.4315 107.314 63.3547 106.932 63.1843C106.55 63.014 106.202 62.7537 105.913 62.4203C105.336 61.663 105.043 60.6754 105.096 59.6713C105.048 58.6588 105.317 57.6601 105.855 56.856C106.105 56.5184 106.419 56.2509 106.773 56.0741C107.127 55.8973 107.512 55.8159 107.897 55.836C108.252 55.8176 108.606 55.8895 108.934 56.0464C109.261 56.2033 109.555 56.4415 109.793 56.7438C110.279 57.4121 110.53 58.2657 110.495 59.1358V59.8396H106.108C106.083 60.5494 106.283 61.2455 106.672 61.7981C106.869 62.0268 107.107 62.2047 107.369 62.3199C107.63 62.4351 107.911 62.4849 108.19 62.4662C108.893 62.4589 109.587 62.2853 110.228 61.9562V62.9456C109.917 63.1031 109.593 63.2244 109.26 63.3077C108.889 63.3879 108.511 63.4221 108.133 63.4097ZM107.884 56.7438C107.656 56.7321 107.429 56.777 107.217 56.8756C107.006 56.9742 106.815 57.1241 106.659 57.315C106.331 57.7643 106.142 58.3257 106.121 58.9114H109.456C109.491 58.3354 109.346 57.7639 109.047 57.2997C108.903 57.1109 108.724 56.9625 108.522 56.8661C108.32 56.7697 108.102 56.7279 107.884 56.7438Z" fill="#231F20"/>
<path d="M113.092 63.2765H112.129V52.8672H113.092V63.2765Z" fill="#231F20"/>
<path d="M116.11 63.2765H115.143V52.8672H116.11V63.2765Z" fill="#231F20"/>
<path d="M120.856 63.4096C120.446 63.4323 120.037 63.356 119.654 63.1856C119.272 63.0151 118.925 62.7544 118.636 62.4202C118.058 61.6637 117.763 60.676 117.814 59.6712C117.766 58.6578 118.037 57.6582 118.578 56.8559C118.827 56.5186 119.141 56.2514 119.494 56.0746C119.847 55.8978 120.231 55.8161 120.616 55.8359C120.971 55.8175 121.326 55.8893 121.654 56.0462C121.983 56.2031 122.277 56.4413 122.516 56.7437C123.001 57.4128 123.249 58.2663 123.213 59.1357V59.8395H118.818C118.792 60.5503 118.994 61.2472 119.386 61.7979C119.583 62.0263 119.819 62.204 120.08 62.3191C120.341 62.4343 120.621 62.4844 120.9 62.4661C121.603 62.4588 122.296 62.2852 122.938 61.9561V62.9455C122.627 63.1037 122.302 63.2251 121.97 63.3076C121.603 63.3871 121.229 63.4213 120.856 63.4096ZM120.594 56.7437C120.366 56.7309 120.138 56.7754 119.926 56.8741C119.714 56.9727 119.524 57.1232 119.368 57.3149C119.039 57.7637 118.849 58.3251 118.827 58.9113H122.165C122.199 58.3356 122.054 57.7648 121.757 57.2996C121.613 57.1114 121.433 56.9634 121.231 56.8671C121.03 56.7707 120.812 56.7285 120.594 56.7437Z" fill="#231F20"/>
<path d="M129.216 63.2766V58.5335C129.248 58.0527 129.121 57.5758 128.861 57.1973C128.713 57.0379 128.537 56.916 128.345 56.8396C128.153 56.7631 127.949 56.7338 127.747 56.7536C127.478 56.7273 127.207 56.7695 126.954 56.877C126.701 56.9845 126.471 57.1548 126.282 57.3758C125.927 57.9741 125.762 58.6945 125.816 59.4158V63.2613H124.848V55.9477H125.642L125.802 56.9678H125.847C126.049 56.6029 126.339 56.3126 126.681 56.1314C127.053 55.9279 127.46 55.8249 127.871 55.8304C128.501 55.7747 129.124 56.0055 129.607 56.4731C129.82 56.7493 129.982 57.0729 130.082 57.4238C130.182 57.7747 130.218 58.1455 130.189 58.5131V63.297L129.216 63.2766Z" fill="#231F20"/>
<path d="M134.717 63.4098C134.319 63.437 133.921 63.3634 133.55 63.1942C133.18 63.025 132.846 62.7643 132.573 62.4306C132.031 61.6506 131.761 60.6674 131.814 59.6714C131.757 58.6483 132.031 57.637 132.582 56.8307C132.86 56.4853 133.202 56.2149 133.582 56.0385C133.961 55.8622 134.371 55.7844 134.78 55.8106C135.09 55.8118 135.4 55.8512 135.703 55.9279C135.951 55.9817 136.193 56.0708 136.422 56.1931L136.125 57.1367C135.898 57.0348 135.665 56.9529 135.428 56.8919C135.208 56.8335 134.983 56.801 134.757 56.795C133.461 56.795 132.813 57.7453 132.813 59.6459C132.773 60.3769 132.939 61.1033 133.288 61.7166C133.453 61.9601 133.668 62.1534 133.913 62.2796C134.159 62.4058 134.427 62.4612 134.695 62.4408C135.257 62.4323 135.812 62.2989 136.329 62.0481V63.0273C135.826 63.3014 135.274 63.4325 134.717 63.4098Z" fill="#231F20"/>
<path d="M140.537 63.4096C140.127 63.4314 139.718 63.3546 139.336 63.1843C138.953 63.0139 138.606 62.7536 138.317 62.4202C137.742 61.6618 137.449 60.675 137.5 59.6712C137.452 58.6587 137.721 57.66 138.259 56.856C138.509 56.5186 138.823 56.2513 139.177 56.0745C139.531 55.8978 139.916 55.8162 140.301 55.8359C140.656 55.8172 141.01 55.8889 141.338 56.0458C141.665 56.2028 141.959 56.4411 142.197 56.7437C142.683 57.412 142.934 58.2656 142.898 59.1357V59.8395H138.503C138.477 60.5503 138.679 61.2472 139.071 61.798C139.268 62.0271 139.504 62.2053 139.765 62.3206C140.027 62.4358 140.306 62.4854 140.585 62.4661C141.288 62.4588 141.982 62.2852 142.623 61.9561V62.9455C142.312 63.103 141.988 63.2243 141.655 63.3076C141.287 63.3871 140.912 63.4213 140.537 63.4096ZM140.292 56.7437C140.064 56.732 139.837 56.777 139.625 56.8755C139.414 56.9741 139.223 57.124 139.067 57.315C138.741 57.7656 138.553 58.3262 138.53 58.9113H141.864C141.899 58.3362 141.756 57.7655 141.46 57.2997C141.315 57.1113 141.134 56.9633 140.932 56.867C140.73 56.7707 140.511 56.7285 140.292 56.7437Z" fill="#231F20"/>
<path d="M148.763 59.212V63.2921H147.773V53.4999H150.109C150.926 53.4275 151.742 53.6697 152.426 54.1884C152.683 54.4427 152.883 54.7625 153.013 55.122C153.142 55.4816 153.197 55.871 153.172 56.259C153.172 57.5545 152.602 58.4283 151.463 58.8805L153.771 63.2768H152.604L150.539 59.1967L148.763 59.212ZM148.763 58.2328H150.122C150.667 58.2854 151.211 58.1157 151.658 57.7534C151.828 57.5724 151.961 57.3494 152.045 57.1012C152.13 56.853 152.165 56.586 152.147 56.3202C152.168 56.0585 152.134 55.7946 152.048 55.5512C151.961 55.3079 151.824 55.0922 151.649 54.9228C151.168 54.5929 150.61 54.4432 150.051 54.4944H148.763V58.2328Z" fill="#231F20"/>
<path d="M157.697 63.4097C157.288 63.4315 156.878 63.3547 156.496 63.1843C156.114 63.014 155.767 62.7537 155.477 62.4203C154.901 61.663 154.607 60.6754 154.66 59.6713C154.613 58.6588 154.882 57.6601 155.42 56.856C155.67 56.5184 155.984 56.2509 156.338 56.0741C156.692 55.8973 157.076 55.8159 157.462 55.836C157.817 55.8176 158.17 55.8895 158.498 56.0464C158.826 56.2033 159.119 56.4415 159.358 56.7438C159.844 57.4121 160.094 58.2657 160.059 59.1358V59.8396H155.659C155.635 60.55 155.837 61.2462 156.228 61.7981C156.425 62.0268 156.662 62.2047 156.924 62.3199C157.186 62.4351 157.466 62.4849 157.746 62.4662C158.449 62.4589 159.142 62.2853 159.784 61.9562V62.9456C159.472 63.1031 159.148 63.2244 158.816 63.3077C158.447 63.3872 158.072 63.4214 157.697 63.4097ZM157.435 56.7438C157.207 56.7321 156.98 56.777 156.768 56.8756C156.557 56.9742 156.366 57.1241 156.21 57.315C155.882 57.7643 155.693 58.3257 155.673 58.9114H159.007C159.04 58.3357 158.896 57.7649 158.598 57.2997C158.455 57.1109 158.275 56.9625 158.073 56.8661C157.871 56.7697 157.653 56.7279 157.435 56.7438Z" fill="#231F20"/>
<path d="M166.044 62.2928H165.99C165.768 62.6609 165.468 62.9571 165.117 63.1527C164.766 63.3484 164.377 63.4369 163.988 63.4097C163.62 63.4299 163.254 63.3515 162.917 63.1807C162.58 63.0098 162.283 62.7512 162.048 62.4254C161.544 61.613 161.3 60.6259 161.355 59.6305C161.3 58.6288 161.544 57.6353 162.048 56.8152C162.279 56.4809 162.576 56.2142 162.914 56.0369C163.252 55.8596 163.621 55.7768 163.993 55.7952C164.377 55.7721 164.761 55.8594 165.109 56.049C165.457 56.2386 165.758 56.5247 165.986 56.8815H166.044L165.999 56.3715L165.977 55.8615V52.8779H166.932V63.2873H166.146L166.044 62.2928ZM164.113 62.4815C164.376 62.508 164.642 62.4664 164.89 62.3596C165.139 62.2528 165.363 62.0836 165.547 61.8644C165.887 61.2745 166.043 60.57 165.99 59.8651V59.6305C166.05 58.8541 165.895 58.0759 165.547 57.4068C165.369 57.1735 165.145 56.9919 164.894 56.8766C164.644 56.7614 164.373 56.7159 164.104 56.7438C163.848 56.7294 163.593 56.7919 163.365 56.9252C163.137 57.0585 162.943 57.2579 162.803 57.5037C162.472 58.1507 162.317 58.8968 162.359 59.6458C162.315 60.3885 162.47 61.1289 162.803 61.7675C162.952 62.0003 163.148 62.1873 163.375 62.3119C163.602 62.4364 163.852 62.4947 164.104 62.4815H164.113Z" fill="#231F20"/>
<path d="M171.695 63.4096C171.286 63.432 170.877 63.3555 170.494 63.1851C170.112 63.0147 169.765 62.7541 169.476 62.4202C168.898 61.6637 168.603 60.676 168.654 59.6712C168.606 58.6578 168.877 57.6582 169.418 56.8559C169.667 56.5186 169.981 56.2514 170.334 56.0746C170.687 55.8978 171.071 55.8161 171.456 55.8359C171.811 55.8175 172.166 55.8893 172.494 56.0462C172.822 56.2031 173.117 56.4413 173.356 56.7437C173.829 57.4091 174.071 58.2521 174.035 59.1102V59.814H169.64C169.614 60.5248 169.816 61.2217 170.208 61.7724C170.405 62.0008 170.641 62.1785 170.903 62.2936C171.164 62.4088 171.443 62.4589 171.722 62.4406C172.425 62.4333 173.118 62.2597 173.76 61.9305V62.92C173.449 63.0791 173.125 63.2004 172.792 63.2821C172.431 63.3687 172.064 63.4114 171.695 63.4096ZM171.433 56.7437C171.205 56.7309 170.978 56.7754 170.766 56.8741C170.554 56.9727 170.364 57.1232 170.208 57.3149C169.879 57.7637 169.689 58.3251 169.666 58.9113H173.005C173.039 58.3356 172.894 57.7648 172.597 57.2996C172.452 57.1114 172.273 56.9634 172.071 56.8671C171.869 56.7707 171.651 56.7285 171.433 56.7437Z" fill="#231F20"/>
<path d="M178.564 56.8099H176.939V63.2769H175.971V56.8099H174.83V56.2999L175.971 55.9021V55.4941C175.971 53.6937 176.659 52.791 178.027 52.791C178.431 52.8026 178.832 52.8816 179.216 53.0256L178.968 53.913C178.659 53.7893 178.336 53.7205 178.009 53.709C177.855 53.6958 177.7 53.7271 177.559 53.8002C177.417 53.8732 177.294 53.9856 177.201 54.1272C176.999 54.5325 176.908 54.998 176.939 55.4635V55.9429H178.564V56.8099ZM179.647 53.9589C179.639 53.8582 179.649 53.7566 179.678 53.6609C179.706 53.5651 179.751 53.4772 179.811 53.403C179.865 53.3435 179.928 53.2969 179.997 53.2662C180.067 53.2356 180.141 53.2214 180.215 53.2245C180.365 53.2221 180.51 53.286 180.619 53.403C180.679 53.4773 180.725 53.565 180.754 53.6607C180.783 53.7564 180.795 53.8579 180.788 53.9589C180.795 54.0607 180.783 54.163 180.754 54.2594C180.725 54.3559 180.679 54.4446 180.619 54.52C180.511 54.6402 180.366 54.7063 180.215 54.7036C180.141 54.706 180.066 54.691 179.997 54.6595C179.927 54.6279 179.864 54.5804 179.811 54.52C179.752 54.4443 179.707 54.3555 179.679 54.259C179.65 54.1625 179.64 54.0604 179.647 53.9589ZM180.695 63.2769H179.727V55.948H180.695V63.2769Z" fill="#231F20"/>
<path d="M187.11 63.2772V58.5341C187.143 58.053 187.016 57.5751 186.754 57.1978C186.607 57.0383 186.432 56.9163 186.241 56.8398C186.049 56.7634 185.846 56.7342 185.644 56.7541C185.375 56.7275 185.103 56.7694 184.849 56.8769C184.595 56.9845 184.365 57.155 184.175 57.3763C183.828 57.9779 183.671 58.698 183.731 59.4164V63.2619H182.768V55.9483H183.553L183.709 56.9683H183.758C183.959 56.6036 184.247 56.3132 184.588 56.1319C184.961 55.9283 185.369 55.8254 185.782 55.831C186.412 55.7769 187.034 56.0075 187.518 56.4736C187.73 56.7505 187.892 57.0742 187.992 57.4249C188.092 57.7756 188.128 58.1461 188.1 58.5137V63.2976L187.11 63.2772Z" fill="#231F20"/>
<path d="M192.757 63.4096C192.347 63.4314 191.938 63.3546 191.556 63.1842C191.174 63.0139 190.826 62.7536 190.537 62.4202C189.956 61.6653 189.657 60.6774 189.707 59.6712C189.659 58.6587 189.928 57.66 190.466 56.8559C190.716 56.5185 191.03 56.2513 191.384 56.0745C191.738 55.8977 192.122 55.8161 192.508 55.8359C192.863 55.8175 193.217 55.8894 193.544 56.0463C193.872 56.2032 194.165 56.4414 194.404 56.7437C194.89 57.412 195.14 58.2656 195.105 59.1357V59.8395H190.71C190.685 60.5493 190.885 61.2453 191.274 61.798C191.471 62.0267 191.709 62.2046 191.97 62.3198C192.232 62.435 192.512 62.4848 192.792 62.4661C193.495 62.4588 194.188 62.2852 194.83 61.9561V62.9455C194.519 63.103 194.194 63.2243 193.862 63.3076C193.498 63.386 193.127 63.4202 192.757 63.4096ZM192.495 56.7437C192.267 56.732 192.039 56.7769 191.828 56.8755C191.616 56.9741 191.426 57.124 191.269 57.3149C190.944 57.7656 190.755 58.3261 190.732 58.9113H194.066C194.102 58.3353 193.957 57.7638 193.658 57.2996C193.514 57.1108 193.334 56.9624 193.133 56.866C192.931 56.7696 192.713 56.7278 192.495 56.7437Z" fill="#231F20"/>
<path d="M201.117 62.2928H201.064C200.842 62.6609 200.541 62.9571 200.19 63.1527C199.84 63.3484 199.451 63.4369 199.062 63.4097C198.693 63.4323 198.325 63.3551 197.987 63.1841C197.649 63.0131 197.351 62.7532 197.117 62.4254C196.61 61.6148 196.363 60.6268 196.42 59.6305C196.366 58.6282 196.612 57.6346 197.117 56.8152C197.348 56.4809 197.645 56.2142 197.983 56.0369C198.321 55.8596 198.691 55.7768 199.062 55.7952C199.446 55.7721 199.83 55.8594 200.178 56.049C200.526 56.2386 200.827 56.5247 201.055 56.8815H201.117L201.077 56.3715L201.051 55.8615V52.8779H202.005V63.2873H201.219L201.117 62.2928ZM199.186 62.4815C199.45 62.508 199.716 62.4664 199.964 62.3596C200.212 62.2528 200.436 62.0836 200.62 61.8644C200.96 61.2745 201.117 60.57 201.064 59.8651V59.6305C201.123 58.8541 200.968 58.0759 200.62 57.4068C200.442 57.1735 200.219 56.9919 199.968 56.8766C199.717 56.7614 199.446 56.7159 199.177 56.7438C198.922 56.7294 198.667 56.7919 198.439 56.9252C198.211 57.0585 198.017 57.2579 197.876 57.5037C197.545 58.1507 197.391 58.8968 197.432 59.6458C197.388 60.3885 197.543 61.1289 197.876 61.7675C198.024 61.9981 198.218 62.1838 198.443 62.3082C198.667 62.4327 198.915 62.4922 199.164 62.4815H199.186Z" fill="#231F20"/>
<path d="M76.5129 43.0957L66.1241 31.804C66.0124 31.6891 65.8695 31.6223 65.7198 31.6149C65.57 31.6074 65.4226 31.6598 65.3028 31.7632L62.639 34.1449C62.5683 34.2101 62.511 34.2923 62.4711 34.3857C62.4312 34.4791 62.4097 34.5815 62.4081 34.6856V42.601C62.4093 42.6941 62.3945 42.7865 62.3645 42.873C62.3346 42.9596 62.2901 43.0385 62.2336 43.1052C62.1772 43.172 62.1098 43.2254 62.0354 43.2622C61.9609 43.2991 61.8809 43.3187 61.7999 43.3201H59.6333C59.5512 43.322 59.4696 43.3049 59.3933 43.2699C59.317 43.2348 59.2477 43.1825 59.1894 43.1161C59.0741 42.9791 59.009 42.7966 59.0073 42.6061V19.2118C59.009 19.0213 59.0741 18.8388 59.1894 18.7018C59.2477 18.6353 59.317 18.583 59.3933 18.5479C59.4696 18.5129 59.5512 18.4958 59.6333 18.4978H61.7821C61.8632 18.4964 61.9436 18.5134 62.019 18.5478C62.0943 18.5822 62.163 18.6333 62.2211 18.6982C62.2792 18.763 62.3257 18.8404 62.3577 18.9259C62.3898 19.0114 62.4069 19.1034 62.4081 19.1965V29.0703C62.4068 29.1651 62.4222 29.2591 62.4535 29.3468C62.4848 29.4345 62.5313 29.5139 62.5901 29.5803C62.6485 29.647 62.7178 29.6998 62.794 29.7357C62.8702 29.7716 62.9518 29.7898 63.0341 29.7894C63.1742 29.7853 63.3107 29.7377 63.4292 29.6517L76.1622 18.2733C76.2633 18.188 76.3839 18.1382 76.5092 18.1301C76.6345 18.1219 76.7592 18.1558 76.8681 18.2274L78.0756 19.1302C78.2067 19.239 78.2991 19.3985 78.3358 19.5794C78.3725 19.7603 78.351 19.9503 78.2754 20.1145C78.2355 20.1604 78.1955 20.2522 78.1156 20.293L68.5037 28.8357C68.3777 28.9521 68.2954 29.1198 68.2739 29.3039C68.2524 29.4881 68.2934 29.6747 68.3883 29.8251C68.3883 29.871 68.4283 29.871 68.4682 29.9169L79.5984 42.0654C79.6576 42.1268 79.7057 42.2011 79.7398 42.2839C79.7739 42.3667 79.7933 42.4565 79.797 42.548C79.8007 42.6396 79.7886 42.731 79.7614 42.8171C79.7342 42.9032 79.6924 42.9823 79.6384 43.0498C79.5827 43.1218 79.5143 43.1795 79.4378 43.2191C79.3613 43.2586 79.2783 43.2791 79.1944 43.2793H76.8858C76.7414 43.2632 76.6042 43.1995 76.4907 43.0957H76.5129ZM100.66 18.8956L111.289 42.1521C111.326 42.2318 111.349 42.319 111.356 42.4089C111.364 42.4988 111.356 42.5895 111.333 42.6758C111.31 42.7621 111.272 42.8423 111.222 42.9118C111.171 42.9812 111.11 43.0385 111.04 43.0804H111.013C110.934 43.1263 110.898 43.1263 110.818 43.1722L108.785 43.4425C108.662 43.459 108.537 43.4335 108.426 43.3691C108.316 43.3047 108.224 43.2042 108.163 43.0804L105.273 36.6032C105.224 36.4873 105.146 36.3911 105.048 36.3274C104.951 36.2636 104.839 36.2353 104.727 36.2462H93.1838C93.0682 36.2434 92.9545 36.2802 92.8573 36.352C92.76 36.4238 92.6836 36.5272 92.6377 36.6491L89.9428 42.856C89.8893 42.971 89.811 43.0685 89.7154 43.139C89.6198 43.2095 89.5101 43.2508 89.3968 43.2589H87.4611C87.38 43.2602 87.2995 43.2432 87.2242 43.2088C87.1489 43.1744 87.0802 43.1234 87.0221 43.0585C86.964 42.9936 86.9175 42.9162 86.8854 42.8307C86.8534 42.7452 86.8362 42.6533 86.8351 42.5602C86.8436 42.4498 86.8707 42.3424 86.915 42.2439L97.1262 18.9007C97.1788 18.7843 97.2568 18.6856 97.3525 18.6141C97.4482 18.5426 97.5583 18.5008 97.6723 18.4927H100.172C100.277 18.516 100.377 18.5644 100.465 18.6346C100.553 18.7049 100.627 18.7955 100.682 18.9007L100.66 18.8956ZM98.2761 23.5316L94.1738 32.8852C94.1367 32.9648 94.1137 33.0521 94.1061 33.142C94.0985 33.2319 94.1065 33.3226 94.1296 33.4089C94.1528 33.4952 94.1905 33.5754 94.2408 33.6448C94.2911 33.7143 94.3528 33.7716 94.4225 33.8134H94.4491C94.533 33.8648 94.6252 33.896 94.7199 33.9052H103.084C103.167 33.9068 103.249 33.8891 103.325 33.8531C103.401 33.8172 103.47 33.7638 103.528 33.6961C103.586 33.6291 103.632 33.5495 103.662 33.4619C103.693 33.3742 103.707 33.2805 103.706 33.1861C103.706 33.078 103.68 32.9719 103.63 32.8801L99.3727 23.5214C99.3377 23.439 99.2888 23.3655 99.229 23.305C99.1691 23.2444 99.0994 23.1981 99.0238 23.1687C98.9483 23.1393 98.8684 23.1274 98.7888 23.1337C98.7093 23.1399 98.6316 23.1642 98.5602 23.2052H98.5336C98.4161 23.2762 98.3202 23.3865 98.2583 23.5214L98.2761 23.5316Z" fill="white"/>
<path d="M119.374 42.5609V19.2125C119.372 19.1175 119.388 19.0231 119.419 18.935C119.45 18.8468 119.496 18.7667 119.554 18.6992C119.612 18.6317 119.682 18.5783 119.758 18.5421C119.835 18.5059 119.917 18.4876 120 18.4883H121.838C121.921 18.4908 122.003 18.5124 122.08 18.5518C122.156 18.5912 122.225 18.6477 122.282 18.7178L136.346 35.2677L137.008 36.1704C137.057 36.2443 137.12 36.3057 137.191 36.3507C137.262 36.3956 137.34 36.4233 137.421 36.4319C137.502 36.4405 137.583 36.4299 137.661 36.4007C137.738 36.3715 137.809 36.3244 137.869 36.2622C137.941 36.1954 137.997 36.1091 138.033 36.0112C138.068 35.9134 138.082 35.8068 138.073 35.7012V19.2125C138.073 19.1183 138.088 19.0249 138.119 18.9377C138.15 18.8505 138.196 18.7712 138.254 18.7043C138.312 18.6375 138.38 18.5844 138.456 18.5482C138.532 18.512 138.613 18.4934 138.695 18.4934H140.888C140.969 18.4921 141.049 18.5091 141.124 18.5435C141.199 18.578 141.268 18.6292 141.326 18.6941C141.383 18.7591 141.429 18.8365 141.461 18.922C141.493 19.0074 141.509 19.0993 141.51 19.1921V42.5609C141.511 42.654 141.496 42.7465 141.466 42.833C141.436 42.9195 141.392 42.9984 141.335 43.0652C141.279 43.132 141.211 43.1853 141.137 43.2222C141.063 43.259 140.983 43.2787 140.901 43.28H139.01C138.842 43.2746 138.683 43.194 138.566 43.0556L123.911 25.4194C123.812 25.2716 123.666 25.1744 123.505 25.1487C123.344 25.1229 123.18 25.1707 123.05 25.2817C122.974 25.3532 122.913 25.4436 122.872 25.5462C122.832 25.6487 122.812 25.7606 122.814 25.8733V42.5609C122.815 42.6555 122.799 42.7492 122.768 42.8367C122.736 42.9243 122.69 43.0038 122.632 43.0709C122.575 43.1385 122.505 43.1919 122.429 43.2279C122.353 43.2638 122.271 43.2816 122.188 43.28H120.04C119.954 43.2856 119.869 43.2711 119.788 43.2375C119.708 43.2039 119.635 43.1519 119.572 43.0846C119.51 43.0174 119.46 42.9363 119.426 42.8462C119.392 42.7562 119.374 42.6591 119.374 42.5609Z" fill="white"/>
<path d="M152.311 42.5609V19.2125C152.313 19.022 152.378 18.8395 152.493 18.7025C152.612 18.5687 152.771 18.4937 152.937 18.4934H155.086C155.168 18.493 155.25 18.5112 155.326 18.5471C155.402 18.583 155.471 18.6358 155.53 18.7025C155.645 18.8395 155.71 19.022 155.712 19.2125V42.5609C155.711 42.7515 155.645 42.9342 155.53 43.0709C155.471 43.1376 155.402 43.1904 155.326 43.2263C155.25 43.2621 155.168 43.2804 155.086 43.28H152.937C152.855 43.281 152.773 43.263 152.697 43.227C152.62 43.1911 152.551 43.138 152.493 43.0709C152.377 42.9342 152.312 42.7515 152.311 42.5609ZM166.101 42.5609V19.2125C166.097 19.0279 166.156 18.8489 166.266 18.7136C166.375 18.5784 166.526 18.4975 166.687 18.4883H168.525C168.608 18.4902 168.691 18.5116 168.767 18.551C168.843 18.5905 168.912 18.6472 168.969 18.7178L183.033 35.2677L183.695 36.1704C183.745 36.2437 183.807 36.3044 183.878 36.349C183.949 36.3935 184.028 36.421 184.108 36.4296C184.189 36.4382 184.27 36.4277 184.347 36.399C184.424 36.3702 184.495 36.3237 184.556 36.2622C184.631 36.1969 184.69 36.1116 184.728 36.0137C184.767 35.9158 184.784 35.8085 184.778 35.7012V19.2125C184.778 19.1183 184.793 19.0249 184.824 18.9377C184.855 18.8505 184.901 18.7712 184.959 18.7043C185.016 18.6375 185.085 18.5844 185.161 18.5482C185.237 18.512 185.318 18.4934 185.4 18.4934H187.593C187.674 18.492 187.754 18.5091 187.829 18.5435C187.904 18.578 187.973 18.6291 188.03 18.6941C188.088 18.759 188.134 18.8365 188.166 18.922C188.197 19.0074 188.214 19.0992 188.215 19.1921V42.5609C188.217 42.748 188.155 42.9287 188.042 43.0634C187.929 43.1981 187.774 43.276 187.611 43.28H185.755C185.587 43.2756 185.427 43.1949 185.311 43.0556L170.633 25.4194C170.535 25.2705 170.389 25.1724 170.228 25.1466C170.066 25.1208 169.903 25.1694 169.772 25.2817C169.697 25.3529 169.638 25.4427 169.598 25.5443C169.558 25.6459 169.539 25.7567 169.541 25.8682V42.5609C169.54 42.7515 169.475 42.9342 169.359 43.0709C169.302 43.1385 169.232 43.1919 169.156 43.2279C169.08 43.2638 168.998 43.2816 168.915 43.28H166.727C166.644 43.2804 166.563 43.2621 166.486 43.2263C166.41 43.1904 166.341 43.1376 166.283 43.0709C166.167 42.9342 166.102 42.7515 166.101 42.5609ZM198.612 42.5609V19.2125C198.611 19.1182 198.626 19.0246 198.657 18.9371C198.687 18.8496 198.732 18.7698 198.79 18.7025C198.909 18.5697 199.068 18.4948 199.234 18.4934H201.383C201.545 18.4933 201.701 18.5665 201.817 18.6971C201.934 18.8277 202.001 19.0054 202.004 19.1921V42.5609C202.005 42.654 201.99 42.7464 201.961 42.833C201.931 42.9195 201.886 42.9984 201.83 43.0652C201.773 43.1319 201.706 43.1853 201.631 43.2222C201.557 43.259 201.477 43.2787 201.396 43.28H199.229C199.063 43.2786 198.904 43.2037 198.785 43.0709C198.729 43.0031 198.684 42.9232 198.655 42.8357C198.625 42.7482 198.61 42.6548 198.612 42.5609Z" fill="white"/>
<path d="M76.5129 43.0498L66.1241 31.7632C66.0133 31.6467 65.8706 31.5783 65.7206 31.57C65.5706 31.5616 65.4228 31.6137 65.3028 31.7173L62.639 34.099C62.5683 34.1642 62.511 34.2464 62.4711 34.3398C62.4312 34.4332 62.4097 34.5356 62.4081 34.6397V42.5602C62.4093 42.6533 62.3945 42.7457 62.3645 42.8322C62.3346 42.9188 62.2901 42.9977 62.2336 43.0644C62.1772 43.1312 62.1098 43.1846 62.0354 43.2214C61.9609 43.2583 61.8809 43.2779 61.7999 43.2793H59.6333C59.4672 43.279 59.3078 43.2039 59.1894 43.0702C59.0737 42.9335 59.0085 42.7508 59.0073 42.5602V19.2118C59.009 19.0213 59.0741 18.8388 59.1894 18.7018C59.3078 18.568 59.4672 18.493 59.6333 18.4927H61.7821C61.9462 18.4913 62.1041 18.5645 62.2214 18.6964C62.3386 18.8282 62.4058 19.008 62.4081 19.1965V29.0703C62.4068 29.1651 62.4222 29.2591 62.4535 29.3468C62.4848 29.4345 62.5313 29.5139 62.5901 29.5803C62.6485 29.647 62.7178 29.6998 62.794 29.7357C62.8702 29.7716 62.9518 29.7898 63.0341 29.7894C63.1742 29.7853 63.3107 29.7377 63.4292 29.6517L76.1622 18.2733C76.2633 18.188 76.3839 18.1382 76.5092 18.1301C76.6345 18.1219 76.7592 18.1558 76.8681 18.2274L78.0756 19.1302C78.2067 19.239 78.2991 19.3985 78.3358 19.5794C78.3725 19.7603 78.351 19.9503 78.2754 20.1145C78.2355 20.1604 78.1955 20.2522 78.1156 20.293L68.5037 28.8357C68.3777 28.9521 68.2954 29.1198 68.2739 29.3039C68.2524 29.4881 68.2934 29.6747 68.3883 29.8251L68.4682 29.9169L79.5984 42.0654C79.6576 42.1268 79.7057 42.2011 79.7398 42.2839C79.7739 42.3667 79.7933 42.4565 79.797 42.548C79.8007 42.6396 79.7886 42.731 79.7614 42.8171C79.7342 42.9032 79.6924 42.9823 79.6384 43.0498C79.5827 43.1218 79.5143 43.1795 79.4378 43.2191C79.3613 43.2586 79.2783 43.2791 79.1944 43.2793H76.8858C76.81 43.2728 76.7361 43.2492 76.6683 43.2098C76.6005 43.1704 76.5402 43.116 76.4907 43.0498H76.5129ZM100.66 18.8956L111.289 42.1521C111.326 42.2318 111.349 42.319 111.356 42.4089C111.364 42.4988 111.356 42.5895 111.333 42.6758C111.31 42.7621 111.272 42.8423 111.222 42.9118C111.171 42.9812 111.11 43.0385 111.04 43.0804H111.013C110.934 43.1263 110.898 43.1263 110.818 43.1722L108.785 43.4425C108.662 43.459 108.537 43.4335 108.426 43.3691C108.316 43.3047 108.224 43.2042 108.163 43.0804L105.273 36.6491C105.218 36.5385 105.139 36.4469 105.043 36.3841C104.947 36.3212 104.837 36.2894 104.727 36.2921H93.1838C93.0682 36.2893 92.9545 36.3262 92.8573 36.3979C92.76 36.4697 92.6836 36.5731 92.6377 36.695L89.9428 42.856C89.8893 42.971 89.811 43.0685 89.7154 43.139C89.6198 43.2095 89.5101 43.2508 89.3968 43.2589H87.4611C87.38 43.2602 87.2995 43.2432 87.2242 43.2088C87.1489 43.1744 87.0802 43.1234 87.0221 43.0585C86.964 42.9936 86.9175 42.9162 86.8854 42.8307C86.8534 42.7452 86.8362 42.6533 86.8351 42.5602C86.8436 42.4498 86.8707 42.3424 86.915 42.2439L97.1262 18.9007C97.1788 18.7843 97.2568 18.6856 97.3525 18.6141C97.4482 18.5426 97.5583 18.5008 97.6723 18.4927H100.172C100.28 18.5069 100.383 18.5517 100.472 18.6229C100.561 18.6941 100.633 18.7895 100.682 18.9007L100.66 18.8956ZM98.2761 23.5316L94.1738 32.8852C94.1367 32.9648 94.1137 33.0521 94.1061 33.142C94.0985 33.2319 94.1065 33.3226 94.1296 33.4089C94.1528 33.4952 94.1905 33.5754 94.2408 33.6448C94.2911 33.7143 94.3528 33.7716 94.4225 33.8134H94.4491C94.533 33.8648 94.6252 33.896 94.7199 33.9052H103.084C103.167 33.9068 103.249 33.8891 103.325 33.8531C103.401 33.8172 103.47 33.7638 103.528 33.6961C103.586 33.6291 103.632 33.5495 103.662 33.4619C103.693 33.3742 103.707 33.2805 103.706 33.1861C103.706 33.078 103.68 32.9719 103.63 32.8801L99.3727 23.5214C99.3377 23.439 99.2888 23.3655 99.229 23.3049C99.1691 23.2444 99.0994 23.1981 99.0238 23.1687C98.9483 23.1393 98.8684 23.1274 98.7888 23.1337C98.7093 23.1399 98.6316 23.1642 98.5602 23.2052H98.5336C98.4161 23.2762 98.3202 23.3865 98.2583 23.5214L98.2761 23.5316Z" fill="black"/>
<path d="M119.374 42.5609V19.2125C119.372 19.1175 119.388 19.0231 119.419 18.935C119.45 18.8468 119.496 18.7667 119.554 18.6992C119.612 18.6317 119.682 18.5783 119.758 18.5421C119.835 18.5059 119.917 18.4876 120 18.4883H121.838C121.921 18.4908 122.003 18.5124 122.08 18.5518C122.156 18.5912 122.225 18.6477 122.282 18.7178L136.346 35.2677L137.008 36.1704C137.057 36.2443 137.12 36.3057 137.191 36.3507C137.262 36.3956 137.34 36.4233 137.421 36.4319C137.502 36.4405 137.583 36.4299 137.661 36.4007C137.738 36.3715 137.809 36.3244 137.869 36.2622C137.941 36.1954 137.997 36.1091 138.033 36.0112C138.068 35.9134 138.082 35.8068 138.073 35.7012V19.2125C138.073 19.1183 138.088 19.0249 138.119 18.9377C138.15 18.8505 138.196 18.7712 138.254 18.7043C138.312 18.6375 138.38 18.5844 138.456 18.5482C138.532 18.512 138.613 18.4934 138.695 18.4934H140.888C140.969 18.4921 141.049 18.5091 141.124 18.5435C141.199 18.578 141.268 18.6292 141.326 18.6941C141.383 18.7591 141.429 18.8365 141.461 18.922C141.493 19.0074 141.509 19.0993 141.51 19.1921V42.5609C141.511 42.654 141.496 42.7465 141.466 42.833C141.436 42.9195 141.392 42.9984 141.335 43.0652C141.279 43.132 141.211 43.1853 141.137 43.2222C141.063 43.259 140.983 43.2787 140.901 43.28H139.01C138.842 43.2746 138.683 43.194 138.566 43.0556L123.911 25.4194C123.812 25.2716 123.666 25.1744 123.505 25.1487C123.344 25.1229 123.18 25.1707 123.05 25.2817C122.974 25.3532 122.913 25.4436 122.872 25.5462C122.832 25.6487 122.812 25.7606 122.814 25.8733V42.5609C122.815 42.6555 122.799 42.7492 122.768 42.8367C122.736 42.9243 122.69 43.0038 122.632 43.0709C122.575 43.1385 122.505 43.1919 122.429 43.2279C122.353 43.2638 122.271 43.2816 122.188 43.28H120.04C119.954 43.2856 119.869 43.2711 119.788 43.2375C119.708 43.2039 119.635 43.1519 119.572 43.0846C119.51 43.0174 119.46 42.9363 119.426 42.8462C119.392 42.7562 119.374 42.6591 119.374 42.5609Z" fill="black"/>
<path d="M152.311 42.5609V19.2125C152.313 19.022 152.378 18.8395 152.493 18.7025C152.612 18.5688 152.771 18.4937 152.937 18.4934H155.086C155.168 18.493 155.25 18.5113 155.326 18.5471C155.402 18.583 155.471 18.6358 155.53 18.7025C155.645 18.8395 155.71 19.022 155.712 19.2125V42.5609C155.711 42.7515 155.645 42.9342 155.53 43.0709C155.471 43.1376 155.402 43.1904 155.326 43.2263C155.25 43.2622 155.168 43.2804 155.086 43.28H152.937C152.855 43.281 152.773 43.263 152.697 43.2271C152.62 43.1912 152.551 43.1381 152.493 43.0709C152.377 42.9342 152.312 42.7515 152.311 42.5609ZM166.101 42.5609V19.2125C166.097 19.0279 166.156 18.8489 166.266 18.7137C166.375 18.5784 166.526 18.4976 166.687 18.4883H168.525C168.608 18.4903 168.691 18.5116 168.767 18.551C168.843 18.5905 168.912 18.6472 168.969 18.7178L183.033 35.2677L183.695 36.1704C183.745 36.2437 183.807 36.3044 183.878 36.349C183.949 36.3936 184.028 36.421 184.108 36.4296C184.189 36.4382 184.27 36.4278 184.347 36.399C184.424 36.3702 184.495 36.3237 184.556 36.2622C184.631 36.197 184.69 36.1116 184.728 36.0137C184.767 35.9158 184.784 35.8085 184.778 35.7012V19.2125C184.778 19.1183 184.793 19.0249 184.824 18.9377C184.855 18.8505 184.901 18.7712 184.959 18.7043C185.016 18.6375 185.085 18.5844 185.161 18.5482C185.237 18.512 185.318 18.4934 185.4 18.4934H187.593C187.674 18.4921 187.754 18.5091 187.829 18.5435C187.904 18.578 187.973 18.6292 188.03 18.6941C188.088 18.7591 188.134 18.8365 188.166 18.922C188.197 19.0074 188.214 19.0993 188.215 19.1921V42.5609C188.217 42.7481 188.155 42.9287 188.042 43.0634C187.929 43.1981 187.774 43.276 187.611 43.28H185.755C185.587 43.2757 185.427 43.195 185.311 43.0556L170.633 25.4194C170.535 25.2705 170.389 25.1724 170.228 25.1466C170.066 25.1208 169.903 25.1694 169.772 25.2817C169.697 25.3529 169.638 25.4427 169.598 25.5443C169.558 25.6459 169.539 25.7567 169.541 25.8682V42.5609C169.54 42.7515 169.475 42.9342 169.359 43.0709C169.302 43.1385 169.232 43.1919 169.156 43.2279C169.08 43.2638 168.998 43.2816 168.915 43.28H166.727C166.564 43.267 166.412 43.187 166.297 43.0549C166.182 42.9227 166.112 42.7473 166.101 42.5609ZM198.608 42.5609V19.2125C198.607 19.1175 198.622 19.0231 198.653 18.935C198.684 18.8468 198.73 18.7667 198.788 18.6992C198.846 18.6317 198.916 18.5783 198.992 18.5421C199.069 18.5059 199.151 18.4876 199.234 18.4883H201.383C201.546 18.4883 201.703 18.5621 201.819 18.6938C201.935 18.8255 202.002 19.0045 202.004 19.1921V42.5609C202.005 42.654 201.99 42.7465 201.961 42.833C201.931 42.9195 201.886 42.9984 201.83 43.0652C201.773 43.132 201.706 43.1853 201.631 43.2222C201.557 43.259 201.477 43.2787 201.396 43.28H199.229C199.147 43.2807 199.065 43.2626 198.989 43.2267C198.913 43.1908 198.844 43.1378 198.785 43.0709C198.727 43.004 198.681 42.9244 198.65 42.8369C198.619 42.7493 198.603 42.6555 198.603 42.5609H198.608Z" fill="black"/>
<path d="M5.40303 32.7783H18.6465C19.0954 32.7803 19.5396 32.8839 19.9537 33.0831C20.3678 33.2823 20.7437 33.5733 21.0599 33.9394C21.3761 34.3054 21.6264 34.7395 21.7966 35.2167C21.9668 35.6939 22.0535 36.205 22.0517 36.7207V51.9497C22.0529 52.4663 21.9653 52.978 21.7941 53.4557C21.6228 53.9333 21.3712 54.3674 21.0536 54.7332C20.7361 55.0989 20.3588 55.3891 19.9435 55.5871C19.5281 55.7851 19.0829 55.887 18.6332 55.887H18.5089C18.059 55.8877 17.6135 55.7862 17.1979 55.5885C16.7823 55.3907 16.4048 55.1006 16.0872 54.7347C15.7695 54.3688 15.5179 53.9344 15.3468 53.4565C15.1758 52.9785 15.0886 52.4665 15.0904 51.9497V40.7294H5.40303C4.51013 40.6926 3.6645 40.2592 3.04416 39.5206C2.42381 38.7819 2.07715 37.7956 2.07715 36.7692C2.07715 35.7428 2.42381 34.7564 3.04416 34.0178C3.6645 33.2791 4.51013 32.8457 5.40303 32.8089V32.7783Z" fill="#0088CE"/>
<path d="M42.4032 28.8868H29.173C28.7228 28.8881 28.2768 28.7872 27.8607 28.5897C27.4446 28.3923 27.0665 28.1022 26.7484 27.7363C26.4303 27.3703 26.1783 26.9357 26.0069 26.4574C25.8356 25.9792 25.7483 25.4667 25.75 24.9495V9.7205C25.7477 8.67985 26.105 7.68067 26.7434 6.94243C27.3819 6.20419 28.2494 5.78726 29.1552 5.78321H29.3017C29.7516 5.78253 30.1971 5.88398 30.6127 6.08174C31.0283 6.27949 31.4058 6.56965 31.7235 6.93553C32.0411 7.30141 32.2927 7.7358 32.4638 8.21374C32.6349 8.69168 32.722 9.20374 32.7203 9.7205V21.0173H42.4032C43.2902 21.054 44.1303 21.4846 44.7466 22.2185C45.3629 22.9524 45.7072 23.9323 45.7072 24.952C45.7072 25.9717 45.3629 26.9517 44.7466 27.6856C44.1303 28.4195 43.2902 28.8501 42.4032 28.8868Z" fill="#00A8E4"/>
<path d="M3.2054 13.378L39.0689 54.5717C39.7908 55.4008 40.7697 55.8665 41.7904 55.8665C42.8112 55.8665 43.7901 55.4008 44.512 54.5717C45.235 53.7381 45.641 52.6093 45.641 51.4326C45.641 50.2558 45.235 49.127 44.512 48.2934L8.69725 6.98241C7.97766 6.1705 7.01358 5.70801 6.00506 5.69092C4.99654 5.67383 4.021 6.10344 3.28087 6.89061C2.89906 7.29057 2.59055 7.77401 2.37339 8.31263C2.15623 8.85125 2.0348 9.43423 2.01619 10.0274C1.99759 10.6206 2.08219 11.2121 2.26504 11.7673C2.44789 12.3225 2.72532 12.8302 3.08109 13.2607L3.2054 13.378Z" fill="#BDDA57"/>
<path d="M18.5489 32.7783H18.6465C19.5336 32.815 20.3737 33.2456 20.99 33.9795C21.6062 34.7134 21.9506 35.6934 21.9506 36.7131C21.9506 37.7328 21.6062 38.7127 20.99 39.4466C20.3737 40.1805 19.5336 40.6111 18.6465 40.6478H15.1303C15.0859 40.6478 15.0859 40.6478 15.0859 40.6019V36.7207C15.093 35.6719 15.4612 34.669 16.1101 33.9312C16.759 33.1933 17.6359 32.7807 18.5489 32.7834V32.7783Z" fill="#00A8E4"/>
<path d="M29.3016 28.8871H29.2128C28.3257 28.8504 27.4856 28.4198 26.8693 27.6859C26.2531 26.952 25.9087 25.972 25.9087 24.9523C25.9087 23.9326 26.2531 22.9527 26.8693 22.2188C27.4856 21.4849 28.3257 21.0543 29.2128 21.0176H32.7645V24.9498C32.7586 25.999 32.3908 27.0027 31.7416 27.7408C31.0924 28.4789 30.2149 28.8911 29.3016 28.8871Z" fill="#68CEF2"/>
</svg>
