<svg width="1098" height="1080" viewBox="0 0 1098 1080" fill="none" xmlns="http://www.w3.org/2000/svg">
    <path opacity="0.5" d="M0 0H1098V786C1098 948.372 966.372 1080 804 1080H0V0Z" fill="url(#paint0_linear_5_869)"/>
    <mask id="mask0_5_869" style="mask-type:alpha" maskUnits="userSpaceOnUse" x="578" y="0" width="520" height="698">
    <rect x="578" width="520" height="698" fill="#D9D9D9"/>
    </mask>
    <g mask="url(#mask0_5_869)">
    <path d="M710.001 203.53H1016.62C1027.01 203.57 1037.29 205.643 1046.88 209.629C1056.47 213.616 1065.17 219.439 1072.49 226.765C1079.81 234.091 1085.61 242.777 1089.55 252.328C1093.49 261.878 1095.49 272.105 1095.45 282.426V587.191C1095.48 597.529 1093.45 607.77 1089.49 617.328C1085.52 626.887 1079.7 635.575 1072.35 642.894C1064.99 650.214 1056.26 656.021 1046.64 659.983C1037.03 663.945 1026.72 665.985 1016.31 665.985H1013.43C1003.01 665.998 992.7 663.968 983.078 660.01C973.456 656.053 964.716 650.246 957.362 642.924C950.007 635.602 944.182 626.909 940.221 617.344C936.261 607.78 934.243 597.532 934.283 587.191V362.649H710.001C689.329 361.912 669.751 353.24 655.388 338.457C641.026 323.675 633 303.936 633 283.396C633 262.855 641.026 243.116 655.388 228.334C669.751 213.552 689.329 204.879 710.001 204.143V203.53Z" fill="#0088CE" fill-opacity="0.1"/>
    <path d="M660.37 -182.485L1484.05 640.128C1500.62 656.684 1523.11 665.985 1546.55 665.985C1569.99 665.985 1592.48 656.684 1609.05 640.128C1625.66 623.483 1634.98 600.941 1634.98 577.442C1634.98 553.943 1625.66 531.402 1609.05 514.756L786.501 -310.2C769.974 -326.413 747.833 -335.649 724.67 -335.99C701.507 -336.332 679.102 -327.752 662.104 -312.033C653.335 -304.046 646.249 -294.392 641.262 -283.636C636.274 -272.88 633.485 -261.239 633.058 -249.393C632.631 -237.547 634.574 -225.735 638.773 -214.648C642.973 -203.562 649.344 -193.424 657.515 -184.827L660.37 -182.485Z" fill="#BDDA57" fill-opacity="0.2"/>
    <path d="M1019.05 203.53H1021.25C1041.17 204.249 1060.03 212.684 1073.87 227.06C1087.71 241.436 1095.44 260.631 1095.44 280.606C1095.44 300.58 1087.71 319.776 1073.87 334.152C1060.03 348.528 1041.17 356.963 1021.25 357.682H942.289C941.292 357.682 941.292 357.682 941.292 356.783V280.756C941.45 260.211 949.719 240.565 964.291 226.112C978.863 211.66 998.552 203.577 1019.05 203.63V203.53Z" fill="#00A8E4" fill-opacity="0.15"/>
    </g>
    <g opacity="0.25">
    <path d="M325.892 1136.45H19.3186C8.88615 1136.48 -1.44871 1134.46 -11.091 1130.51C-20.7333 1126.56 -29.4927 1120.75 -36.8648 1113.43C-44.2369 1106.1 -50.0762 1097.4 -54.0466 1087.83C-58.0171 1078.25 -60.0401 1068 -59.9994 1057.64V752.811C-60.0541 731.981 -51.7747 711.981 -36.9798 697.204C-22.1848 682.427 -2.08421 674.081 18.9071 674H22.3021C32.7259 673.987 43.0497 676.017 52.6801 679.976C62.3106 683.934 71.0577 689.742 78.4189 697.066C85.7801 704.389 91.6102 713.084 95.5742 722.651C99.5382 732.218 101.558 742.467 101.517 752.811V978.934H325.892C346.447 979.668 365.914 988.288 380.194 1002.98C394.475 1017.67 402.455 1037.28 402.455 1057.69C402.455 1078.11 394.475 1097.72 380.194 1112.41C365.914 1127.1 346.447 1135.72 325.892 1136.45Z" fill="#00A8E4" fill-opacity="0.3"/>
    <path d="M8.28811 1136.45H6.29165C-13.6541 1135.74 -32.5434 1127.3 -46.4001 1112.92C-60.2567 1098.55 -68 1079.35 -68 1059.38C-68 1039.4 -60.2567 1020.21 -46.4001 1005.83C-32.5434 991.457 -13.6541 983.022 6.29165 982.303H86.1515V1059.33C86.0195 1079.88 77.7482 1099.54 63.1517 1114C48.5552 1128.46 28.825 1136.53 8.28811 1136.45Z" fill="#68CEF2"/>
    </g>
    <path d="M229.24 629V605.96H232.088V616.776L242.168 605.96H245.752L235.288 617.144L246.568 629H242.888L232.088 617.736V629H229.24ZM254.354 629.48C253.064 629.48 251.981 629.245 251.106 628.776C250.242 628.296 249.586 627.667 249.138 626.888C248.701 626.109 248.482 625.256 248.482 624.328C248.482 623.421 248.653 622.637 248.994 621.976C249.346 621.304 249.837 620.749 250.466 620.312C251.096 619.864 251.848 619.512 252.722 619.256C253.544 619.032 254.461 618.84 255.474 618.68C256.498 618.509 257.533 618.355 258.578 618.216C259.624 618.077 260.6 617.944 261.507 617.816L260.483 618.408C260.515 616.872 260.205 615.736 259.554 615C258.914 614.264 257.805 613.896 256.226 613.896C255.181 613.896 254.264 614.136 253.474 614.616C252.696 615.085 252.146 615.853 251.826 616.92L249.122 616.104C249.538 614.589 250.344 613.4 251.538 612.536C252.733 611.672 254.306 611.24 256.259 611.24C257.827 611.24 259.171 611.523 260.29 612.088C261.421 612.643 262.232 613.485 262.722 614.616C262.968 615.149 263.123 615.731 263.187 616.36C263.25 616.979 263.282 617.629 263.282 618.312V629H260.755V624.856L261.347 625.24C260.696 626.637 259.784 627.693 258.611 628.408C257.448 629.123 256.029 629.48 254.354 629.48ZM254.786 627.096C255.811 627.096 256.696 626.915 257.443 626.552C258.2 626.179 258.808 625.693 259.266 625.096C259.725 624.488 260.024 623.827 260.163 623.112C260.323 622.579 260.408 621.987 260.418 621.336C260.44 620.675 260.451 620.168 260.451 619.816L261.443 620.248C260.514 620.376 259.602 620.499 258.707 620.616C257.811 620.733 256.962 620.861 256.162 621C255.362 621.128 254.642 621.283 254.002 621.464C253.533 621.613 253.09 621.805 252.674 622.04C252.269 622.275 251.938 622.579 251.682 622.952C251.437 623.315 251.314 623.768 251.314 624.312C251.314 624.781 251.432 625.229 251.666 625.656C251.912 626.083 252.285 626.429 252.786 626.696C253.298 626.963 253.965 627.096 254.786 627.096ZM280.386 629V620.344C280.386 619.523 280.312 618.733 280.162 617.976C280.024 617.219 279.773 616.541 279.41 615.944C279.058 615.336 278.578 614.856 277.97 614.504C277.373 614.152 276.616 613.976 275.698 613.976C274.984 613.976 274.333 614.099 273.746 614.344C273.17 614.579 272.674 614.941 272.258 615.432C271.842 615.923 271.517 616.541 271.282 617.288C271.058 618.024 270.946 618.893 270.946 619.896L269.074 619.32C269.074 617.645 269.373 616.211 269.97 615.016C270.578 613.811 271.426 612.888 272.514 612.248C273.613 611.597 274.904 611.272 276.386 611.272C277.506 611.272 278.461 611.448 279.25 611.8C280.04 612.152 280.696 612.621 281.218 613.208C281.741 613.784 282.152 614.435 282.451 615.16C282.749 615.875 282.957 616.605 283.074 617.352C283.203 618.088 283.267 618.787 283.267 619.448V629H280.386ZM268.066 629V611.72H270.626V616.344H270.946V629H268.066ZM288.386 608.664V605.72H291.234V608.664H288.386ZM288.386 629V611.72H291.234V629H288.386ZM308.979 629V620.344C308.979 619.523 308.904 618.733 308.755 617.976C308.616 617.219 308.366 616.541 308.003 615.944C307.651 615.336 307.171 614.856 306.563 614.504C305.966 614.152 305.208 613.976 304.291 613.976C303.576 613.976 302.926 614.099 302.339 614.344C301.763 614.579 301.267 614.941 300.851 615.432C300.435 615.923 300.11 616.541 299.875 617.288C299.651 618.024 299.539 618.893 299.539 619.896L297.667 619.32C297.667 617.645 297.966 616.211 298.563 615.016C299.171 613.811 300.019 612.888 301.107 612.248C302.206 611.597 303.496 611.272 304.979 611.272C306.099 611.272 307.054 611.448 307.843 611.8C308.632 612.152 309.288 612.621 309.811 613.208C310.334 613.784 310.744 614.435 311.043 615.16C311.342 615.875 311.55 616.605 311.667 617.352C311.795 618.088 311.859 618.787 311.859 619.448V629H308.979ZM296.659 629V611.72H299.219V616.344H299.539V629H296.659ZM316.979 608.664V605.72H319.827V608.664H316.979ZM316.979 629V611.72H319.827V629H316.979ZM332.314 629V605.96H346.874V608.664H335.162V615.88H344.954V618.584H335.162V626.296H346.874V629H332.314ZM356.032 629L349.76 611.72H352.64L357.488 625.368L362.32 611.72H365.216L358.944 629H356.032ZM372.693 629.48C371.403 629.48 370.32 629.245 369.445 628.776C368.581 628.296 367.925 627.667 367.477 626.888C367.04 626.109 366.821 625.256 366.821 624.328C366.821 623.421 366.992 622.637 367.333 621.976C367.685 621.304 368.176 620.749 368.805 620.312C369.435 619.864 370.187 619.512 371.061 619.256C371.883 619.032 372.8 618.84 373.813 618.68C374.837 618.509 375.872 618.355 376.917 618.216C377.963 618.077 378.939 617.944 379.845 617.816L378.821 618.408C378.853 616.872 378.544 615.736 377.893 615C377.253 614.264 376.144 613.896 374.565 613.896C373.52 613.896 372.603 614.136 371.813 614.616C371.035 615.085 370.485 615.853 370.165 616.92L367.461 616.104C367.877 614.589 368.683 613.4 369.877 612.536C371.072 611.672 372.645 611.24 374.597 611.24C376.165 611.24 377.509 611.523 378.629 612.088C379.76 612.643 380.571 613.485 381.061 614.616C381.307 615.149 381.461 615.731 381.525 616.36C381.589 616.979 381.621 617.629 381.621 618.312V629H379.093V624.856L379.685 625.24C379.035 626.637 378.123 627.693 376.949 628.408C375.787 629.123 374.368 629.48 372.693 629.48ZM373.125 627.096C374.149 627.096 375.035 626.915 375.781 626.552C376.539 626.179 377.147 625.693 377.605 625.096C378.064 624.488 378.363 623.827 378.501 623.112C378.661 622.579 378.747 621.987 378.757 621.336C378.779 620.675 378.789 620.168 378.789 619.816L379.781 620.248C378.853 620.376 377.941 620.499 377.045 620.616C376.149 620.733 375.301 620.861 374.501 621C373.701 621.128 372.981 621.283 372.341 621.464C371.872 621.613 371.429 621.805 371.013 622.04C370.608 622.275 370.277 622.579 370.021 622.952C369.776 623.315 369.653 623.768 369.653 624.312C369.653 624.781 369.771 625.229 370.005 625.656C370.251 626.083 370.624 626.429 371.125 626.696C371.637 626.963 372.304 627.096 373.125 627.096ZM386.741 629V605.48H389.589V629H386.741ZM401.59 629.448C400.481 629.448 399.526 629.272 398.726 628.92C397.937 628.568 397.281 628.099 396.758 627.512C396.235 626.925 395.825 626.275 395.526 625.56C395.227 624.845 395.014 624.115 394.886 623.368C394.769 622.621 394.71 621.923 394.71 621.272V611.72H397.59V620.376C397.59 621.187 397.665 621.971 397.814 622.728C397.963 623.485 398.214 624.168 398.566 624.776C398.929 625.384 399.409 625.864 400.006 626.216C400.614 626.568 401.371 626.744 402.278 626.744C402.993 626.744 403.643 626.621 404.23 626.376C404.817 626.131 405.318 625.768 405.734 625.288C406.15 624.797 406.47 624.179 406.694 623.432C406.918 622.685 407.03 621.816 407.03 620.824L408.902 621.4C408.902 623.064 408.598 624.499 407.99 625.704C407.393 626.909 406.545 627.837 405.446 628.488C404.358 629.128 403.073 629.448 401.59 629.448ZM407.35 629V624.376H407.03V611.72H409.894V629H407.35ZM419.926 629.48C418.635 629.48 417.552 629.245 416.678 628.776C415.814 628.296 415.158 627.667 414.71 626.888C414.272 626.109 414.054 625.256 414.054 624.328C414.054 623.421 414.224 622.637 414.566 621.976C414.918 621.304 415.408 620.749 416.038 620.312C416.667 619.864 417.419 619.512 418.294 619.256C419.115 619.032 420.032 618.84 421.046 618.68C422.07 618.509 423.104 618.355 424.15 618.216C425.195 618.077 426.171 617.944 427.078 617.816L426.054 618.408C426.086 616.872 425.776 615.736 425.126 615C424.486 614.264 423.376 613.896 421.798 613.896C420.752 613.896 419.835 614.136 419.046 614.616C418.267 615.085 417.718 615.853 417.398 616.92L414.694 616.104C415.11 614.589 415.915 613.4 417.11 612.536C418.304 611.672 419.878 611.24 421.83 611.24C423.398 611.24 424.742 611.523 425.862 612.088C426.992 612.643 427.803 613.485 428.294 614.616C428.539 615.149 428.694 615.731 428.758 616.36C428.822 616.979 428.854 617.629 428.854 618.312V629H426.326V624.856L426.918 625.24C426.267 626.637 425.355 627.693 424.182 628.408C423.019 629.123 421.6 629.48 419.926 629.48ZM420.358 627.096C421.382 627.096 422.267 626.915 423.014 626.552C423.771 626.179 424.379 625.693 424.838 625.096C425.296 624.488 425.595 623.827 425.734 623.112C425.894 622.579 425.979 621.987 425.99 621.336C426.011 620.675 426.022 620.168 426.022 619.816L427.014 620.248C426.086 620.376 425.174 620.499 424.278 620.616C423.382 620.733 422.534 620.861 421.734 621C420.934 621.128 420.214 621.283 419.574 621.464C419.104 621.613 418.662 621.805 418.246 622.04C417.84 622.275 417.51 622.579 417.254 622.952C417.008 623.315 416.886 623.768 416.886 624.312C416.886 624.781 417.003 625.229 417.238 625.656C417.483 626.083 417.856 626.429 418.358 626.696C418.87 626.963 419.536 627.096 420.358 627.096ZM443.302 629C442.278 629.203 441.264 629.283 440.262 629.24C439.27 629.208 438.384 629.011 437.606 628.648C436.827 628.275 436.235 627.699 435.83 626.92C435.488 626.237 435.302 625.549 435.27 624.856C435.248 624.152 435.238 623.357 435.238 622.472V606.92H438.086V622.344C438.086 623.048 438.091 623.651 438.102 624.152C438.123 624.653 438.235 625.085 438.438 625.448C438.822 626.131 439.43 626.531 440.262 626.648C441.104 626.765 442.118 626.733 443.302 626.552V629ZM431.734 614.072V611.72H443.302V614.072H431.734ZM447.77 608.664V605.72H450.618V608.664H447.77ZM447.77 629V611.72H450.618V629H447.77ZM463.419 629.48C461.701 629.48 460.219 629.091 458.971 628.312C457.733 627.533 456.779 626.456 456.107 625.08C455.435 623.704 455.099 622.125 455.099 620.344C455.099 618.531 455.44 616.941 456.123 615.576C456.805 614.211 457.771 613.149 459.019 612.392C460.267 611.624 461.733 611.24 463.419 611.24C465.147 611.24 466.635 611.629 467.883 612.408C469.131 613.176 470.085 614.248 470.747 615.624C471.419 616.989 471.755 618.563 471.755 620.344C471.755 622.147 471.419 623.736 470.747 625.112C470.075 626.477 469.115 627.549 467.867 628.328C466.619 629.096 465.136 629.48 463.419 629.48ZM463.419 626.776C465.211 626.776 466.544 626.179 467.419 624.984C468.293 623.789 468.731 622.243 468.731 620.344C468.731 618.392 468.288 616.84 467.403 615.688C466.517 614.525 465.189 613.944 463.419 613.944C462.213 613.944 461.221 614.216 460.443 614.76C459.664 615.304 459.083 616.056 458.699 617.016C458.315 617.976 458.123 619.085 458.123 620.344C458.123 622.285 458.571 623.843 459.467 625.016C460.363 626.189 461.68 626.776 463.419 626.776ZM488.222 629V620.344C488.222 619.523 488.147 618.733 487.998 617.976C487.859 617.219 487.608 616.541 487.246 615.944C486.894 615.336 486.414 614.856 485.806 614.504C485.208 614.152 484.451 613.976 483.534 613.976C482.819 613.976 482.168 614.099 481.582 614.344C481.006 614.579 480.51 614.941 480.094 615.432C479.678 615.923 479.352 616.541 479.118 617.288C478.894 618.024 478.782 618.893 478.782 619.896L476.91 619.32C476.91 617.645 477.208 616.211 477.806 615.016C478.414 613.811 479.262 612.888 480.35 612.248C481.448 611.597 482.739 611.272 484.222 611.272C485.342 611.272 486.296 611.448 487.086 611.8C487.875 612.152 488.531 612.621 489.054 613.208C489.576 613.784 489.987 614.435 490.286 615.16C490.584 615.875 490.792 616.605 490.91 617.352C491.038 618.088 491.102 618.787 491.102 619.448V629H488.222ZM475.902 629V611.72H478.462V616.344H478.782V629H475.902ZM502.947 629V605.96H512.051C512.275 605.96 512.542 605.971 512.851 605.992C513.161 606.003 513.459 606.035 513.747 606.088C514.995 606.28 516.041 606.707 516.883 607.368C517.737 608.029 518.377 608.867 518.803 609.88C519.23 610.883 519.443 611.997 519.443 613.224C519.443 614.44 519.225 615.555 518.787 616.568C518.361 617.571 517.721 618.408 516.867 619.08C516.025 619.741 514.985 620.168 513.747 620.36C513.459 620.403 513.161 620.435 512.851 620.456C512.542 620.477 512.275 620.488 512.051 620.488H505.795V629H502.947ZM505.795 617.784H511.955C512.158 617.784 512.387 617.773 512.643 617.752C512.91 617.731 513.161 617.693 513.395 617.64C514.131 617.469 514.729 617.16 515.187 616.712C515.657 616.253 515.998 615.72 516.211 615.112C516.425 614.493 516.531 613.864 516.531 613.224C516.531 612.584 516.425 611.96 516.211 611.352C515.998 610.733 515.657 610.195 515.187 609.736C514.729 609.277 514.131 608.968 513.395 608.808C513.161 608.744 512.91 608.707 512.643 608.696C512.387 608.675 512.158 608.664 511.955 608.664H505.795V617.784ZM523.595 629V605.48H526.443V629H523.595ZM536.796 629.48C535.505 629.48 534.422 629.245 533.548 628.776C532.684 628.296 532.028 627.667 531.58 626.888C531.142 626.109 530.924 625.256 530.924 624.328C530.924 623.421 531.094 622.637 531.436 621.976C531.788 621.304 532.278 620.749 532.908 620.312C533.537 619.864 534.289 619.512 535.164 619.256C535.985 619.032 536.902 618.84 537.916 618.68C538.94 618.509 539.974 618.355 541.02 618.216C542.065 618.077 543.041 617.944 543.948 617.816L542.924 618.408C542.956 616.872 542.646 615.736 541.996 615C541.356 614.264 540.246 613.896 538.668 613.896C537.622 613.896 536.705 614.136 535.916 614.616C535.137 615.085 534.588 615.853 534.268 616.92L531.564 616.104C531.98 614.589 532.785 613.4 533.98 612.536C535.174 611.672 536.748 611.24 538.7 611.24C540.268 611.24 541.612 611.523 542.732 612.088C543.862 612.643 544.673 613.485 545.164 614.616C545.409 615.149 545.564 615.731 545.628 616.36C545.692 616.979 545.724 617.629 545.724 618.312V629H543.196V624.856L543.788 625.24C543.137 626.637 542.225 627.693 541.052 628.408C539.889 629.123 538.47 629.48 536.796 629.48ZM537.228 627.096C538.252 627.096 539.137 626.915 539.884 626.552C540.641 626.179 541.249 625.693 541.708 625.096C542.166 624.488 542.465 623.827 542.604 623.112C542.764 622.579 542.849 621.987 542.86 621.336C542.881 620.675 542.892 620.168 542.892 619.816L543.884 620.248C542.956 620.376 542.044 620.499 541.148 620.616C540.252 620.733 539.404 620.861 538.604 621C537.804 621.128 537.084 621.283 536.444 621.464C535.974 621.613 535.532 621.805 535.116 622.04C534.71 622.275 534.38 622.579 534.124 622.952C533.878 623.315 533.756 623.768 533.756 624.312C533.756 624.781 533.873 625.229 534.108 625.656C534.353 626.083 534.726 626.429 535.228 626.696C535.74 626.963 536.406 627.096 537.228 627.096ZM560.172 629C559.148 629.203 558.134 629.283 557.132 629.24C556.14 629.208 555.254 629.011 554.476 628.648C553.697 628.275 553.105 627.699 552.7 626.92C552.358 626.237 552.172 625.549 552.14 624.856C552.118 624.152 552.108 623.357 552.108 622.472V606.92H554.956V622.344C554.956 623.048 554.961 623.651 554.972 624.152C554.993 624.653 555.105 625.085 555.308 625.448C555.692 626.131 556.3 626.531 557.132 626.648C557.974 626.765 558.988 626.733 560.172 626.552V629ZM548.604 614.072V611.72H560.172V614.072H548.604ZM565.968 629V610.776C565.968 610.328 565.989 609.875 566.032 609.416C566.075 608.947 566.171 608.493 566.32 608.056C566.469 607.608 566.715 607.197 567.056 606.824C567.451 606.387 567.883 606.077 568.352 605.896C568.821 605.704 569.296 605.587 569.776 605.544C570.267 605.501 570.731 605.48 571.168 605.48H573.36V607.848H571.328C570.485 607.848 569.856 608.056 569.44 608.472C569.024 608.877 568.816 609.496 568.816 610.328V629H565.968ZM563.04 614.072V611.72H573.36V614.072H563.04ZM583.289 629.48C581.571 629.48 580.089 629.091 578.841 628.312C577.603 627.533 576.649 626.456 575.977 625.08C575.305 623.704 574.969 622.125 574.969 620.344C574.969 618.531 575.31 616.941 575.993 615.576C576.675 614.211 577.641 613.149 578.889 612.392C580.137 611.624 581.603 611.24 583.289 611.24C585.017 611.24 586.505 611.629 587.753 612.408C589.001 613.176 589.955 614.248 590.617 615.624C591.289 616.989 591.625 618.563 591.625 620.344C591.625 622.147 591.289 623.736 590.617 625.112C589.945 626.477 588.985 627.549 587.737 628.328C586.489 629.096 585.006 629.48 583.289 629.48ZM583.289 626.776C585.081 626.776 586.414 626.179 587.289 624.984C588.163 623.789 588.601 622.243 588.601 620.344C588.601 618.392 588.158 616.84 587.273 615.688C586.387 614.525 585.059 613.944 583.289 613.944C582.083 613.944 581.091 614.216 580.313 614.76C579.534 615.304 578.953 616.056 578.569 617.016C578.185 617.976 577.993 619.085 577.993 620.344C577.993 622.285 578.441 623.843 579.337 625.016C580.233 626.189 581.55 626.776 583.289 626.776ZM595.787 629V611.72H598.331V615.896L597.915 615.352C598.118 614.819 598.379 614.328 598.699 613.88C599.03 613.432 599.398 613.064 599.803 612.776C600.251 612.413 600.758 612.136 601.323 611.944C601.889 611.752 602.465 611.64 603.051 611.608C603.638 611.565 604.187 611.603 604.699 611.72V614.392C604.102 614.232 603.446 614.189 602.731 614.264C602.017 614.339 601.355 614.6 600.747 615.048C600.193 615.443 599.761 615.923 599.451 616.488C599.153 617.053 598.945 617.667 598.827 618.328C598.71 618.979 598.651 619.645 598.651 620.328V629H595.787ZM629.021 629L629.037 617.944C629.037 616.653 628.69 615.645 627.997 614.92C627.314 614.184 626.424 613.816 625.325 613.816C624.685 613.816 624.077 613.965 623.501 614.264C622.925 614.552 622.456 615.011 622.093 615.64C621.73 616.259 621.549 617.053 621.549 618.024L620.045 617.416C620.024 616.189 620.274 615.117 620.797 614.2C621.33 613.272 622.056 612.552 622.973 612.04C623.89 611.528 624.925 611.272 626.077 611.272C627.88 611.272 629.298 611.821 630.333 612.92C631.368 614.008 631.885 615.475 631.885 617.32L631.869 629H629.021ZM608.349 629V611.72H610.893V616.344H611.213V629H608.349ZM618.701 629L618.717 618.056C618.717 616.733 618.376 615.699 617.693 614.952C617.01 614.195 616.104 613.816 614.973 613.816C613.853 613.816 612.946 614.2 612.253 614.968C611.56 615.736 611.213 616.755 611.213 618.024L609.709 617.128C609.709 616.008 609.976 615.005 610.509 614.12C611.042 613.235 611.768 612.541 612.685 612.04C613.602 611.528 614.642 611.272 615.805 611.272C616.968 611.272 617.981 611.517 618.845 612.008C619.709 612.499 620.376 613.203 620.845 614.12C621.314 615.027 621.549 616.109 621.549 617.368L621.533 629H618.701Z" fill="#4F5B67"/>
    <path d="M230.36 573V538.44H236.888V552.648H252.344V538.44H258.872V573H252.344V558.744H236.888V573H230.36ZM278.618 573.72C275.962 573.72 273.618 573.152 271.586 572.016C269.57 570.864 267.986 569.288 266.834 567.288C265.698 565.272 265.13 562.968 265.13 560.376C265.13 557.544 265.69 555.08 266.81 552.984C267.93 550.888 269.474 549.264 271.442 548.112C273.41 546.944 275.674 546.36 278.234 546.36C280.954 546.36 283.266 547 285.17 548.28C287.074 549.56 288.482 551.36 289.394 553.68C290.306 556 290.626 558.728 290.354 561.864H283.898V559.464C283.898 556.824 283.474 554.928 282.626 553.776C281.794 552.608 280.426 552.024 278.522 552.024C276.298 552.024 274.658 552.704 273.602 554.064C272.562 555.408 272.042 557.4 272.042 560.04C272.042 562.456 272.562 564.328 273.602 565.656C274.658 566.968 276.202 567.624 278.234 567.624C279.514 567.624 280.61 567.344 281.522 566.784C282.434 566.224 283.13 565.416 283.61 564.36L290.138 566.232C289.162 568.6 287.618 570.44 285.506 571.752C283.41 573.064 281.114 573.72 278.618 573.72ZM270.026 561.864V557.016H287.21V561.864H270.026ZM297.213 573V537.72H303.741V573H297.213ZM324.616 573.72C322.04 573.72 319.888 573.12 318.16 571.92C316.432 570.72 315.128 569.088 314.248 567.024C313.384 564.96 312.952 562.632 312.952 560.04C312.952 557.448 313.384 555.12 314.248 553.056C315.112 550.992 316.384 549.36 318.064 548.16C319.744 546.96 321.816 546.36 324.28 546.36C326.76 546.36 328.92 546.952 330.76 548.136C332.6 549.32 334.024 550.944 335.032 553.008C336.056 555.056 336.568 557.4 336.568 560.04C336.568 562.632 336.064 564.96 335.056 567.024C334.064 569.088 332.672 570.72 330.88 571.92C329.088 573.12 327 573.72 324.616 573.72ZM311.848 584.52V547.08H317.608V564.84H318.424V584.52H311.848ZM323.56 567.912C324.968 567.912 326.12 567.56 327.016 566.856C327.912 566.152 328.576 565.208 329.008 564.024C329.44 562.824 329.656 561.496 329.656 560.04C329.656 558.6 329.432 557.288 328.984 556.104C328.536 554.904 327.84 553.952 326.896 553.248C325.968 552.528 324.776 552.168 323.32 552.168C321.96 552.168 320.856 552.496 320.008 553.152C319.176 553.808 318.568 554.728 318.184 555.912C317.8 557.096 317.608 558.472 317.608 560.04C317.608 561.608 317.8 562.984 318.184 564.168C318.568 565.352 319.192 566.272 320.056 566.928C320.936 567.584 322.104 567.912 323.56 567.912ZM352.234 573.72C348.97 573.72 346.33 572.984 344.314 571.512C342.314 570.024 341.098 567.928 340.666 565.224L347.338 564.216C347.61 565.432 348.21 566.384 349.138 567.072C350.082 567.76 351.274 568.104 352.714 568.104C353.898 568.104 354.81 567.88 355.45 567.432C356.09 566.968 356.41 566.328 356.41 565.512C356.41 565 356.282 564.592 356.026 564.288C355.77 563.968 355.194 563.656 354.298 563.352C353.418 563.048 352.042 562.648 350.17 562.152C348.058 561.608 346.37 561 345.106 560.328C343.842 559.656 342.93 558.856 342.37 557.928C341.81 556.984 341.53 555.848 341.53 554.52C341.53 552.856 341.954 551.416 342.802 550.2C343.65 548.968 344.842 548.024 346.378 547.368C347.93 546.696 349.754 546.36 351.85 546.36C353.882 546.36 355.682 546.672 357.25 547.296C358.818 547.92 360.082 548.808 361.042 549.96C362.018 551.112 362.618 552.472 362.842 554.04L356.17 555.24C356.058 554.28 355.642 553.52 354.922 552.96C354.202 552.4 353.226 552.072 351.994 551.976C350.794 551.896 349.826 552.056 349.09 552.456C348.37 552.856 348.01 553.432 348.01 554.184C348.01 554.632 348.162 555.008 348.466 555.312C348.786 555.616 349.434 555.928 350.41 556.248C351.402 556.568 352.906 556.984 354.922 557.496C356.89 558.008 358.466 558.608 359.65 559.296C360.85 559.968 361.722 560.784 362.266 561.744C362.81 562.688 363.082 563.832 363.082 565.176C363.082 567.832 362.122 569.92 360.202 571.44C358.282 572.96 355.626 573.72 352.234 573.72ZM388.334 573V558.936L376.526 538.44H384.158L391.646 551.448L399.134 538.44H406.766L394.958 558.936V573H388.334ZM418.9 573.72C416.292 573.72 414.004 573.136 412.036 571.968C410.068 570.8 408.532 569.192 407.428 567.144C406.34 565.08 405.796 562.712 405.796 560.04C405.796 557.336 406.356 554.96 407.476 552.912C408.596 550.848 410.14 549.24 412.108 548.088C414.076 546.936 416.34 546.36 418.9 546.36C421.508 546.36 423.796 546.944 425.764 548.112C427.748 549.28 429.292 550.896 430.396 552.96C431.5 555.008 432.052 557.368 432.052 560.04C432.052 562.728 431.492 565.104 430.372 567.168C429.268 569.216 427.724 570.824 425.74 571.992C423.772 573.144 421.492 573.72 418.9 573.72ZM418.9 567.624C420.996 567.624 422.556 566.92 423.58 565.512C424.62 564.088 425.14 562.264 425.14 560.04C425.14 557.736 424.612 555.896 423.556 554.52C422.516 553.144 420.964 552.456 418.9 552.456C417.476 552.456 416.308 552.776 415.396 553.416C414.484 554.056 413.804 554.944 413.356 556.08C412.924 557.216 412.708 558.536 412.708 560.04C412.708 562.36 413.228 564.208 414.268 565.584C415.324 566.944 416.868 567.624 418.9 567.624ZM447.938 573.768C445.906 573.768 444.25 573.424 442.97 572.736C441.69 572.048 440.69 571.176 439.97 570.12C439.266 569.064 438.762 567.968 438.458 566.832C438.154 565.68 437.97 564.632 437.906 563.688C437.842 562.744 437.81 562.056 437.81 561.624V547.08H444.434V559.32C444.434 559.912 444.466 560.672 444.53 561.6C444.594 562.512 444.794 563.432 445.13 564.36C445.466 565.288 446.01 566.064 446.762 566.688C447.53 567.312 448.61 567.624 450.002 567.624C450.562 567.624 451.162 567.536 451.802 567.36C452.442 567.184 453.042 566.848 453.602 566.352C454.162 565.84 454.618 565.096 454.97 564.12C455.338 563.128 455.522 561.832 455.522 560.232L459.266 562.008C459.266 564.056 458.85 565.976 458.018 567.768C457.186 569.56 455.93 571.008 454.25 572.112C452.586 573.216 450.482 573.768 447.938 573.768ZM456.338 573V564.408H455.522V547.08H462.098V573H456.338ZM488.351 573V544.536H477.455V538.44H505.775V544.536H494.879V573H488.351ZM518.412 573.72C515.804 573.72 513.516 573.136 511.548 571.968C509.58 570.8 508.044 569.192 506.94 567.144C505.852 565.08 505.308 562.712 505.308 560.04C505.308 557.336 505.868 554.96 506.988 552.912C508.108 550.848 509.652 549.24 511.62 548.088C513.588 546.936 515.852 546.36 518.412 546.36C521.02 546.36 523.308 546.944 525.276 548.112C527.26 549.28 528.804 550.896 529.908 552.96C531.012 555.008 531.564 557.368 531.564 560.04C531.564 562.728 531.004 565.104 529.884 567.168C528.78 569.216 527.236 570.824 525.252 571.992C523.284 573.144 521.004 573.72 518.412 573.72ZM518.412 567.624C520.508 567.624 522.068 566.92 523.092 565.512C524.132 564.088 524.652 562.264 524.652 560.04C524.652 557.736 524.124 555.896 523.068 554.52C522.028 553.144 520.476 552.456 518.412 552.456C516.988 552.456 515.82 552.776 514.908 553.416C513.996 554.056 513.316 554.944 512.868 556.08C512.436 557.216 512.22 558.536 512.22 560.04C512.22 562.36 512.74 564.208 513.78 565.584C514.836 566.944 516.38 567.624 518.412 567.624ZM548.371 573V538.44H570.931V544.536H554.899V551.928H568.051V558.024H554.899V566.904H570.931V573H548.371ZM584.652 573L575.244 547.08H581.772L587.916 565.032L594.06 547.08H600.588L591.18 573H584.652ZM611.632 573.72C609.776 573.72 608.2 573.368 606.904 572.664C605.624 571.944 604.648 570.992 603.976 569.808C603.32 568.608 602.992 567.288 602.992 565.848C602.992 564.648 603.176 563.552 603.544 562.56C603.912 561.568 604.504 560.696 605.32 559.944C606.152 559.176 607.264 558.536 608.656 558.024C609.616 557.672 610.76 557.36 612.088 557.088C613.416 556.816 614.92 556.56 616.6 556.32C618.28 556.064 620.128 555.784 622.144 555.48L619.792 556.776C619.792 555.24 619.424 554.112 618.688 553.392C617.952 552.672 616.72 552.312 614.992 552.312C614.032 552.312 613.032 552.544 611.992 553.008C610.952 553.472 610.224 554.296 609.808 555.48L603.904 553.608C604.56 551.464 605.792 549.72 607.6 548.376C609.408 547.032 611.872 546.36 614.992 546.36C617.28 546.36 619.312 546.712 621.088 547.416C622.864 548.12 624.208 549.336 625.12 551.064C625.632 552.024 625.936 552.984 626.032 553.944C626.128 554.904 626.176 555.976 626.176 557.16V573H620.464V567.672L621.28 568.776C620.016 570.52 618.648 571.784 617.176 572.568C615.72 573.336 613.872 573.72 611.632 573.72ZM613.024 568.584C614.224 568.584 615.232 568.376 616.048 567.96C616.88 567.528 617.536 567.04 618.016 566.496C618.512 565.952 618.848 565.496 619.024 565.128C619.36 564.424 619.552 563.608 619.6 562.68C619.664 561.736 619.696 560.952 619.696 560.328L621.616 560.808C619.68 561.128 618.112 561.4 616.912 561.624C615.712 561.832 614.744 562.024 614.008 562.2C613.272 562.376 612.624 562.568 612.064 562.776C611.424 563.032 610.904 563.312 610.504 563.616C610.12 563.904 609.832 564.224 609.64 564.576C609.464 564.928 609.376 565.32 609.376 565.752C609.376 566.344 609.52 566.856 609.808 567.288C610.112 567.704 610.536 568.024 611.08 568.248C611.624 568.472 612.272 568.584 613.024 568.584ZM633.856 573V537.72H640.384V573H633.856ZM658.187 573.768C656.155 573.768 654.499 573.424 653.219 572.736C651.939 572.048 650.939 571.176 650.219 570.12C649.515 569.064 649.011 567.968 648.707 566.832C648.403 565.68 648.219 564.632 648.155 563.688C648.091 562.744 648.059 562.056 648.059 561.624V547.08H654.683V559.32C654.683 559.912 654.715 560.672 654.779 561.6C654.843 562.512 655.043 563.432 655.379 564.36C655.715 565.288 656.259 566.064 657.011 566.688C657.779 567.312 658.859 567.624 660.251 567.624C660.811 567.624 661.411 567.536 662.051 567.36C662.691 567.184 663.291 566.848 663.851 566.352C664.411 565.84 664.867 565.096 665.219 564.12C665.587 563.128 665.771 561.832 665.771 560.232L669.515 562.008C669.515 564.056 669.099 565.976 668.267 567.768C667.435 569.56 666.179 571.008 664.499 572.112C662.835 573.216 660.731 573.768 658.187 573.768ZM666.587 573V564.408H665.771V547.08H672.347V573H666.587ZM695.567 573C693.775 573.336 692.015 573.48 690.287 573.432C688.575 573.4 687.039 573.104 685.679 572.544C684.335 571.968 683.311 571.048 682.607 569.784C681.967 568.6 681.631 567.4 681.599 566.184C681.567 564.952 681.551 563.56 681.551 562.008V539.88H688.079V561.624C688.079 562.632 688.087 563.544 688.103 564.36C688.135 565.16 688.303 565.8 688.607 566.28C689.183 567.192 690.103 567.688 691.367 567.768C692.631 567.848 694.031 567.784 695.567 567.576V573ZM677.135 552.12V547.08H695.567V552.12H677.135ZM712.945 573.72C710.289 573.72 707.945 573.152 705.913 572.016C703.897 570.864 702.313 569.288 701.161 567.288C700.025 565.272 699.457 562.968 699.457 560.376C699.457 557.544 700.017 555.08 701.137 552.984C702.257 550.888 703.801 549.264 705.769 548.112C707.737 546.944 710.001 546.36 712.561 546.36C715.281 546.36 717.593 547 719.497 548.28C721.401 549.56 722.809 551.36 723.721 553.68C724.633 556 724.953 558.728 724.681 561.864H718.225V559.464C718.225 556.824 717.801 554.928 716.953 553.776C716.121 552.608 714.753 552.024 712.849 552.024C710.625 552.024 708.985 552.704 707.929 554.064C706.889 555.408 706.369 557.4 706.369 560.04C706.369 562.456 706.889 564.328 707.929 565.656C708.985 566.968 710.529 567.624 712.561 567.624C713.841 567.624 714.937 567.344 715.849 566.784C716.761 566.224 717.457 565.416 717.937 564.36L724.465 566.232C723.489 568.6 721.945 570.44 719.833 571.752C717.737 573.064 715.441 573.72 712.945 573.72ZM704.353 561.864V557.016H721.537V561.864H704.353ZM754.685 573.72C752.125 573.72 749.813 573.272 747.749 572.376C745.701 571.464 744.013 570.168 742.685 568.488C741.373 566.792 740.541 564.776 740.189 562.44L747.005 561.432C747.485 563.416 748.477 564.944 749.981 566.016C751.485 567.088 753.197 567.624 755.117 567.624C756.189 567.624 757.229 567.456 758.237 567.12C759.245 566.784 760.069 566.288 760.709 565.632C761.365 564.976 761.693 564.168 761.693 563.208C761.693 562.856 761.637 562.52 761.525 562.2C761.429 561.864 761.261 561.552 761.021 561.264C760.781 560.976 760.437 560.704 759.989 560.448C759.557 560.192 759.005 559.96 758.333 559.752L749.357 557.112C748.685 556.92 747.901 556.648 747.005 556.296C746.125 555.944 745.269 555.44 744.437 554.784C743.605 554.128 742.909 553.264 742.349 552.192C741.805 551.104 741.533 549.736 741.533 548.088C741.533 545.768 742.117 543.84 743.285 542.304C744.453 540.768 746.013 539.624 747.965 538.872C749.917 538.12 752.077 537.752 754.445 537.768C756.829 537.8 758.957 538.208 760.829 538.992C762.701 539.776 764.269 540.92 765.533 542.424C766.797 543.912 767.709 545.736 768.269 547.896L761.213 549.096C760.957 547.976 760.485 547.032 759.797 546.264C759.109 545.496 758.285 544.912 757.325 544.512C756.381 544.112 755.389 543.896 754.349 543.864C753.325 543.832 752.357 543.976 751.445 544.296C750.549 544.6 749.813 545.048 749.237 545.64C748.677 546.232 748.397 546.936 748.397 547.752C748.397 548.504 748.629 549.12 749.093 549.6C749.557 550.064 750.141 550.44 750.845 550.728C751.549 551.016 752.269 551.256 753.005 551.448L759.005 553.08C759.901 553.32 760.893 553.64 761.981 554.04C763.069 554.424 764.109 554.968 765.101 555.672C766.109 556.36 766.933 557.272 767.573 558.408C768.229 559.544 768.557 560.984 768.557 562.728C768.557 564.584 768.165 566.208 767.381 567.6C766.613 568.976 765.573 570.12 764.261 571.032C762.949 571.928 761.461 572.6 759.797 573.048C758.149 573.496 756.445 573.72 754.685 573.72ZM774.744 573L774.792 538.44H781.416V559.56L790.2 547.08H798.264L788.904 560.04L798.888 573H790.392L781.416 560.52V573H774.744ZM802.717 543.48V537.72H809.245V543.48H802.717ZM802.717 573V547.08H809.245V573H802.717ZM817.88 573V537.72H824.408V573H817.88ZM833.043 573V537.72H839.571V573H833.043ZM857.854 573.72C854.59 573.72 851.95 572.984 849.934 571.512C847.934 570.024 846.718 567.928 846.286 565.224L852.958 564.216C853.23 565.432 853.83 566.384 854.758 567.072C855.702 567.76 856.894 568.104 858.334 568.104C859.518 568.104 860.43 567.88 861.07 567.432C861.71 566.968 862.03 566.328 862.03 565.512C862.03 565 861.902 564.592 861.646 564.288C861.39 563.968 860.814 563.656 859.918 563.352C859.038 563.048 857.662 562.648 855.79 562.152C853.678 561.608 851.99 561 850.726 560.328C849.462 559.656 848.55 558.856 847.99 557.928C847.43 556.984 847.15 555.848 847.15 554.52C847.15 552.856 847.574 551.416 848.422 550.2C849.27 548.968 850.462 548.024 851.998 547.368C853.55 546.696 855.374 546.36 857.47 546.36C859.502 546.36 861.302 546.672 862.87 547.296C864.438 547.92 865.702 548.808 866.662 549.96C867.638 551.112 868.238 552.472 868.462 554.04L861.79 555.24C861.678 554.28 861.262 553.52 860.542 552.96C859.822 552.4 858.846 552.072 857.614 551.976C856.414 551.896 855.446 552.056 854.71 552.456C853.99 552.856 853.63 553.432 853.63 554.184C853.63 554.632 853.782 555.008 854.086 555.312C854.406 555.616 855.054 555.928 856.03 556.248C857.022 556.568 858.526 556.984 860.542 557.496C862.51 558.008 864.086 558.608 865.27 559.296C866.47 559.968 867.342 560.784 867.886 561.744C868.43 562.688 868.702 563.832 868.702 565.176C868.702 567.832 867.742 569.92 865.822 571.44C863.902 572.96 861.246 573.72 857.854 573.72Z" fill="#0C1116"/>
    <circle cx="259" cy="475" r="32" fill="#1589CC"/>
    <path d="M276.898 458.518L276.086 464.759C274.101 464.624 272.567 464.982 271.485 465.832C270.402 466.682 269.68 467.868 269.319 469.389C268.958 470.91 268.891 472.632 269.116 474.556H276.898V490.729H261.943V473.214C261.943 467.935 263.207 463.953 265.733 461.269C268.304 458.54 272.026 457.623 276.898 458.518ZM256.056 458.518L255.244 464.759C253.259 464.624 251.726 464.982 250.643 465.832C249.56 466.682 248.838 467.868 248.477 469.389C248.117 470.91 248.049 472.632 248.274 474.556H256.056V490.729H241.102V473.214C241.102 467.935 242.365 463.953 244.891 461.269C247.462 458.54 251.184 457.623 256.056 458.518Z" fill="white"/>
    <defs>
    <linearGradient id="paint0_linear_5_869" x1="-500" y1="-482.5" x2="985" y2="991" gradientUnits="userSpaceOnUse">
    <stop stop-color="#0088CE"/>
    <stop offset="0.645663" stop-color="#008ACF" stop-opacity="0.42"/>
    <stop offset="1" stop-color="#BDDA57" stop-opacity="0.15"/>
    </linearGradient>
    </defs>
    </svg>
    