<svg width="206" height="68" viewBox="0 0 206 68" fill="none" xmlns="http://www.w3.org/2000/svg">
    <path d="M91.7705 63.2773H87.0156V53.5004H91.7616V54.5204H88.0057V57.6672H91.5352V58.6872H88.0057V62.2879H91.7616L91.7705 63.2773Z" fill="#231F20"/>
    <path d="M95.0451 59.5235L92.8253 55.9535H93.9263L95.609 58.7585L97.2827 55.9535H98.3749L96.155 59.5235L98.4903 63.2772H97.3937L95.6178 60.309L93.8109 63.2772H92.7188L95.0451 59.5235Z" fill="#231F20"/>
    <path d="M102.306 63.4099C101.908 63.4371 101.51 63.3635 101.139 63.1943C100.769 63.0251 100.435 62.7644 100.162 62.4307C99.6168 61.6524 99.3445 60.6684 99.3981 59.6715C99.3407 58.6474 99.6159 57.6352 100.171 56.8308C100.451 56.482 100.796 56.2095 101.18 56.033C101.564 55.8566 101.978 55.7807 102.39 55.8107C102.7 55.812 103.008 55.8513 103.309 55.928C103.559 55.9821 103.802 56.0712 104.033 56.1932L103.736 57.1368C103.509 57.0349 103.276 56.953 103.039 56.892C102.819 56.8336 102.594 56.8011 102.368 56.7951C101.072 56.7951 100.424 57.7454 100.424 59.646C100.384 60.377 100.55 61.1034 100.899 61.7167C101.064 61.9602 101.279 62.1535 101.524 62.2797C101.769 62.4059 102.038 62.4613 102.306 62.4409C102.868 62.4324 103.422 62.299 103.94 62.0482V63.0274C103.43 63.3055 102.87 63.4368 102.306 63.4099V63.4099Z" fill="#231F20"/>
    <path d="M108.129 63.41C107.719 63.4318 107.31 63.355 106.928 63.1847C106.546 63.0143 106.199 62.754 105.909 62.4206C105.333 61.6633 105.039 60.6757 105.092 59.6716C105.044 58.6591 105.313 57.6604 105.851 56.8563C106.101 56.5187 106.415 56.2512 106.769 56.0744C107.123 55.8976 107.508 55.8162 107.893 55.8363C108.248 55.8179 108.602 55.8898 108.93 56.0467C109.257 56.2036 109.551 56.4418 109.789 56.7441C110.275 57.4124 110.526 58.266 110.491 59.1361V59.8399H106.104C106.079 60.5497 106.28 61.2458 106.668 61.7984C106.865 62.0271 107.103 62.205 107.365 62.3202C107.626 62.4354 107.907 62.4852 108.186 62.4665C108.889 62.4592 109.583 62.2856 110.224 61.9565V62.9459C109.913 63.1034 109.589 63.2247 109.256 63.308C108.885 63.3882 108.507 63.4224 108.129 63.41V63.41ZM107.88 56.7441C107.652 56.7324 107.425 56.7773 107.213 56.8759C107.002 56.9745 106.811 57.1244 106.655 57.3154C106.327 57.7646 106.138 58.326 106.118 58.9117H109.452C109.487 58.3357 109.342 57.7642 109.043 57.3001C108.899 57.1112 108.72 56.9628 108.518 56.8664C108.316 56.77 108.098 56.7282 107.88 56.7441V56.7441Z" fill="#231F20"/>
    <path d="M113.088 63.2772H112.125V52.8678H113.088V63.2772Z" fill="#231F20"/>
    <path d="M116.108 63.2772H115.141V52.8678H116.108V63.2772Z" fill="#231F20"/>
    <path d="M120.852 63.4099C120.442 63.4326 120.033 63.3563 119.65 63.1859C119.268 63.0154 118.921 62.7547 118.632 62.4205C118.054 61.664 117.759 60.6763 117.81 59.6715C117.762 58.6581 118.033 57.6585 118.574 56.8562C118.824 56.519 119.137 56.2517 119.49 56.0749C119.843 55.8981 120.227 55.8165 120.612 55.8362C120.967 55.8178 121.322 55.8896 121.65 56.0465C121.979 56.2034 122.273 56.4416 122.512 56.744C122.997 57.4131 123.245 58.2666 123.209 59.136V59.8398H118.814C118.788 60.5506 118.99 61.2475 119.382 61.7982C119.579 62.0266 119.815 62.2043 120.077 62.3194C120.338 62.4346 120.617 62.4847 120.896 62.4664C121.599 62.4591 122.292 62.2855 122.934 61.9564V62.9458C122.623 63.104 122.299 63.2254 121.966 63.3079C121.599 63.3874 121.225 63.4216 120.852 63.4099V63.4099ZM120.59 56.744C120.362 56.7312 120.134 56.7757 119.922 56.8744C119.711 56.973 119.52 57.1235 119.364 57.3152C119.035 57.7641 118.845 58.3254 118.823 58.9116H122.161C122.195 58.3359 122.05 57.7651 121.753 57.2999C121.609 57.1117 121.429 56.9637 121.227 56.8674C121.026 56.771 120.808 56.7289 120.59 56.744V56.744Z" fill="#231F20"/>
    <path d="M129.212 63.2773V58.5342C129.244 58.0533 129.117 57.5764 128.857 57.1979C128.709 57.0385 128.533 56.9166 128.341 56.8402C128.149 56.7638 127.945 56.7345 127.743 56.7542C127.474 56.728 127.203 56.7701 126.95 56.8776C126.697 56.9852 126.467 57.1555 126.278 57.3764C125.923 57.9748 125.758 58.6951 125.812 59.4165V63.262H124.844V55.9484H125.638L125.798 56.9684H125.843C126.045 56.6035 126.335 56.3132 126.677 56.132C127.049 55.9285 127.456 55.8256 127.867 55.8311C128.497 55.7753 129.12 56.0061 129.603 56.4737C129.816 56.7499 129.978 57.0735 130.078 57.4244C130.178 57.7753 130.214 58.1461 130.185 58.5138V63.2977L129.212 63.2773Z" fill="#231F20"/>
    <path d="M134.716 63.4099C134.317 63.4371 133.919 63.3635 133.549 63.1943C133.178 63.0251 132.844 62.7644 132.571 62.4307C132.029 61.6507 131.759 60.6675 131.812 59.6715C131.755 58.6483 132.029 57.6371 132.58 56.8307C132.858 56.4854 133.2 56.2149 133.58 56.0386C133.96 55.8623 134.369 55.7845 134.778 55.8107C135.088 55.8119 135.398 55.8512 135.701 55.928C135.95 55.9818 136.191 56.0709 136.42 56.1932L136.123 57.1367C135.896 57.0348 135.663 56.953 135.426 56.8919C135.206 56.8336 134.981 56.8011 134.755 56.795C133.459 56.795 132.811 57.7453 132.811 59.646C132.771 60.377 132.937 61.1033 133.286 61.7166C133.451 61.9601 133.666 62.1534 133.911 62.2797C134.157 62.4059 134.425 62.4612 134.693 62.4409C135.255 62.4323 135.81 62.299 136.327 62.0482V63.0274C135.824 63.3014 135.272 63.4326 134.716 63.4099V63.4099Z" fill="#231F20"/>
    <path d="M140.535 63.4099C140.125 63.4317 139.716 63.3549 139.334 63.1846C138.951 63.0142 138.604 62.7539 138.315 62.4205C137.74 61.6621 137.447 60.6753 137.498 59.6715C137.45 58.659 137.719 57.6603 138.257 56.8563C138.507 56.5189 138.822 56.2516 139.175 56.0748C139.529 55.8981 139.914 55.8165 140.299 55.8362C140.654 55.8175 141.008 55.8892 141.336 56.0461C141.663 56.2031 141.957 56.4414 142.195 56.7441C142.681 57.4124 142.932 58.2659 142.897 59.136V59.8398H138.501C138.475 60.5506 138.678 61.2475 139.07 61.7983C139.266 62.0274 139.502 62.2056 139.763 62.3209C140.025 62.4361 140.304 62.4857 140.583 62.4664C141.286 62.4591 141.98 62.2855 142.621 61.9564V62.9458C142.31 63.1033 141.986 63.2246 141.653 63.3079C141.285 63.3874 140.91 63.4216 140.535 63.4099V63.4099ZM140.29 56.7441C140.062 56.7323 139.835 56.7773 139.623 56.8758C139.412 56.9744 139.221 57.1243 139.065 57.3153C138.739 57.7659 138.551 58.3265 138.528 58.9116H141.862C141.897 58.3365 141.754 57.7658 141.458 57.3C141.313 57.1116 141.132 56.9636 140.93 56.8673C140.728 56.771 140.509 56.7289 140.29 56.7441V56.7441Z" fill="#231F20"/>
    <path d="M148.763 59.2124V63.2925H147.773V53.5002H150.109C150.926 53.4279 151.742 53.6701 152.426 54.1888C152.683 54.4431 152.883 54.7629 153.013 55.1224C153.142 55.482 153.197 55.8714 153.172 56.2594C153.172 57.5548 152.602 58.4287 151.463 58.8809L153.771 63.2772H152.604L150.539 59.1971L148.763 59.2124ZM148.763 58.2332H150.122C150.667 58.2858 151.211 58.1161 151.658 57.7538C151.828 57.5728 151.961 57.3498 152.045 57.1016C152.13 56.8534 152.165 56.5864 152.147 56.3206C152.168 56.0589 152.134 55.795 152.048 55.5516C151.961 55.3083 151.824 55.0926 151.649 54.9232C151.168 54.5933 150.61 54.4435 150.051 54.4948H148.763V58.2332Z" fill="#231F20"/>
    <path d="M157.699 63.41C157.289 63.4318 156.88 63.355 156.498 63.1847C156.116 63.0143 155.769 62.754 155.479 62.4206C154.903 61.6633 154.609 60.6757 154.662 59.6716C154.614 58.6591 154.884 57.6604 155.422 56.8563C155.672 56.5187 155.986 56.2512 156.34 56.0744C156.694 55.8976 157.078 55.8162 157.464 55.8363C157.818 55.8179 158.172 55.8898 158.5 56.0467C158.828 56.2036 159.121 56.4418 159.36 56.7441C159.846 57.4124 160.096 58.266 160.061 59.1361V59.8399H155.661C155.637 60.5503 155.839 61.2465 156.23 61.7984C156.427 62.0271 156.664 62.205 156.926 62.3202C157.188 62.4354 157.468 62.4852 157.748 62.4665C158.45 62.4592 159.144 62.2856 159.786 61.9565V62.9459C159.474 63.1034 159.15 63.2247 158.818 63.308C158.449 63.3875 158.074 63.4217 157.699 63.41V63.41ZM157.437 56.7441C157.209 56.7324 156.982 56.7773 156.77 56.8759C156.559 56.9745 156.368 57.1244 156.212 57.3154C155.884 57.7646 155.695 58.326 155.675 58.9117H159.009C159.042 58.336 158.898 57.7652 158.6 57.3001C158.457 57.1112 158.277 56.9628 158.075 56.8664C157.873 56.77 157.655 56.7282 157.437 56.7441V56.7441Z" fill="#231F20"/>
    <path d="M166.04 62.2931H165.987C165.765 62.6612 165.464 62.9574 165.113 63.153C164.762 63.3487 164.373 63.4372 163.984 63.41C163.617 63.4302 163.25 63.3518 162.913 63.181C162.576 63.0101 162.279 62.7515 162.044 62.4257C161.54 61.6133 161.296 60.6262 161.352 59.6308C161.296 58.6291 161.54 57.6356 162.044 56.8155C162.275 56.4812 162.572 56.2145 162.91 56.0372C163.248 55.8599 163.618 55.7771 163.989 55.7955C164.373 55.7725 164.757 55.8597 165.105 56.0493C165.453 56.2389 165.754 56.525 165.982 56.8818H166.04L165.995 56.3718L165.973 55.8618V52.8782H166.928V63.2876H166.142L166.04 62.2931ZM164.109 62.4818C164.373 62.5083 164.638 62.4667 164.886 62.3599C165.135 62.2531 165.359 62.0839 165.543 61.8647C165.883 61.2748 166.039 60.5703 165.987 59.8654V59.6308C166.046 58.8544 165.891 58.0762 165.543 57.4071C165.365 57.1738 165.141 56.9922 164.89 56.877C164.64 56.7617 164.369 56.7162 164.1 56.7441C163.844 56.7297 163.59 56.7922 163.361 56.9255C163.133 57.0588 162.939 57.2582 162.799 57.504C162.468 58.151 162.313 58.8972 162.355 59.6461C162.311 60.3888 162.466 61.1292 162.799 61.7678C162.948 62.0006 163.144 62.1876 163.371 62.3122C163.598 62.4368 163.848 62.495 164.1 62.4818H164.109Z" fill="#231F20"/>
    <path d="M171.695 63.4099C171.286 63.4323 170.877 63.3559 170.494 63.1854C170.112 63.015 169.765 62.7544 169.476 62.4205C168.898 61.664 168.603 60.6763 168.654 59.6715C168.606 58.6581 168.877 57.6585 169.418 56.8562C169.667 56.519 169.981 56.2517 170.334 56.0749C170.687 55.8981 171.071 55.8165 171.456 55.8362C171.811 55.8178 172.166 55.8896 172.494 56.0465C172.822 56.2034 173.117 56.4416 173.356 56.744C173.829 57.4094 174.071 58.2524 174.035 59.1105V59.8143H169.64C169.614 60.5251 169.816 61.222 170.208 61.7728C170.405 62.0011 170.641 62.1788 170.903 62.294C171.164 62.4091 171.443 62.4592 171.722 62.4409C172.425 62.4336 173.118 62.26 173.76 61.9309V62.9203C173.449 63.0794 173.125 63.2007 172.792 63.2824C172.431 63.369 172.064 63.4117 171.695 63.4099V63.4099ZM171.433 56.744C171.205 56.7312 170.978 56.7757 170.766 56.8744C170.554 56.973 170.364 57.1235 170.208 57.3152C169.879 57.7641 169.689 58.3254 169.666 58.9116H173.005C173.039 58.3359 172.894 57.7651 172.597 57.2999C172.452 57.1117 172.273 56.9637 172.071 56.8674C171.869 56.771 171.651 56.7289 171.433 56.744V56.744Z" fill="#231F20"/>
    <path d="M178.562 56.8102H176.937V63.2772H175.969V56.8102H174.828V56.3002L175.969 55.9024V55.4944C175.969 53.694 176.657 52.7913 178.025 52.7913C178.429 52.8028 178.83 52.8819 179.215 53.0259L178.966 53.9133C178.657 53.7896 178.334 53.7208 178.007 53.7093C177.853 53.6961 177.698 53.7274 177.557 53.8004C177.415 53.8735 177.293 53.9859 177.199 54.1275C176.997 54.5327 176.906 54.9983 176.937 55.4638V55.9432H178.562V56.8102ZM179.645 53.9592C179.637 53.8585 179.647 53.7569 179.676 53.6611C179.704 53.5653 179.75 53.4775 179.809 53.4033C179.863 53.3437 179.926 53.2972 179.996 53.2665C180.065 53.2358 180.139 53.2216 180.213 53.2248C180.363 53.2224 180.508 53.2863 180.617 53.4033C180.677 53.4776 180.723 53.5653 180.752 53.661C180.781 53.7567 180.793 53.8582 180.786 53.9592C180.793 54.061 180.781 54.1633 180.752 54.2597C180.723 54.3562 180.677 54.4448 180.617 54.5202C180.509 54.6405 180.364 54.7065 180.213 54.7038C180.139 54.7063 180.064 54.6913 179.995 54.6598C179.926 54.6282 179.862 54.5807 179.809 54.5202C179.75 54.4446 179.705 54.3558 179.677 54.2593C179.648 54.1628 179.638 54.0607 179.645 53.9592V53.9592ZM180.693 63.2772H179.725V55.9483H180.693V63.2772Z" fill="#231F20"/>
    <path d="M187.108 63.2774V58.5343C187.141 58.0532 187.014 57.5753 186.752 57.198C186.605 57.0385 186.43 56.9165 186.239 56.84C186.047 56.7636 185.844 56.7344 185.643 56.7543C185.373 56.7277 185.101 56.7696 184.847 56.8771C184.593 56.9847 184.363 57.1552 184.173 57.3765C183.826 57.9781 183.669 58.6982 183.729 59.4166V63.2621H182.766V55.9485H183.551L183.707 56.9685H183.756C183.957 56.6038 184.245 56.3134 184.586 56.1321C184.959 55.9285 185.367 55.8256 185.78 55.8312C186.41 55.7771 187.033 56.0077 187.516 56.4738C187.728 56.7507 187.89 57.0744 187.99 57.4251C188.09 57.7758 188.126 58.1463 188.098 58.5139V63.2978L187.108 63.2774Z" fill="#231F20"/>
    <path d="M192.759 63.4099C192.349 63.4317 191.94 63.3549 191.558 63.1845C191.175 63.0142 190.828 62.7539 190.539 62.4205C189.958 61.6656 189.659 60.6777 189.709 59.6715C189.661 58.659 189.93 57.6603 190.468 56.8562C190.718 56.5189 191.032 56.2516 191.386 56.0748C191.74 55.898 192.124 55.8164 192.51 55.8362C192.865 55.8178 193.219 55.8897 193.546 56.0466C193.874 56.2035 194.167 56.4417 194.406 56.744C194.892 57.4123 195.142 58.2659 195.107 59.136V59.8398H190.712C190.687 60.5496 190.887 61.2456 191.276 61.7983C191.473 62.027 191.711 62.2049 191.972 62.3201C192.234 62.4353 192.514 62.4851 192.794 62.4664C193.497 62.4591 194.19 62.2855 194.832 61.9564V62.9458C194.521 63.1033 194.196 63.2246 193.864 63.3079C193.5 63.3863 193.129 63.4205 192.759 63.4099V63.4099ZM192.497 56.744C192.269 56.7323 192.041 56.7772 191.83 56.8758C191.618 56.9744 191.428 57.1243 191.271 57.3152C190.946 57.7659 190.757 58.3264 190.734 58.9116H194.068C194.104 58.3356 193.959 57.7641 193.66 57.2999C193.516 57.1111 193.336 56.9627 193.135 56.8663C192.933 56.7699 192.715 56.7281 192.497 56.744Z" fill="#231F20"/>
    <path d="M201.111 62.2931H201.058C200.836 62.6612 200.535 62.9574 200.184 63.153C199.834 63.3487 199.445 63.4372 199.056 63.41C198.687 63.4327 198.319 63.3554 197.981 63.1844C197.644 63.0134 197.345 62.7535 197.111 62.4257C196.604 61.6151 196.357 60.6271 196.414 59.6308C196.36 58.6285 196.606 57.635 197.111 56.8155C197.342 56.4812 197.639 56.2145 197.977 56.0372C198.315 55.8599 198.685 55.7771 199.056 55.7955C199.44 55.7725 199.824 55.8597 200.172 56.0493C200.52 56.2389 200.821 56.525 201.049 56.8818H201.111L201.071 56.3718L201.045 55.8618V52.8782H201.999V63.2876H201.214L201.111 62.2931ZM199.18 62.4818C199.444 62.5083 199.71 62.4667 199.958 62.3599C200.206 62.2531 200.43 62.0839 200.614 61.8647C200.954 61.2748 201.111 60.5703 201.058 59.8654V59.6308C201.118 58.8544 200.962 58.0762 200.614 57.4071C200.436 57.1738 200.213 56.9922 199.962 56.877C199.711 56.7617 199.44 56.7162 199.171 56.7441C198.916 56.7297 198.661 56.7922 198.433 56.9255C198.205 57.0588 198.011 57.2582 197.87 57.504C197.539 58.151 197.385 58.8972 197.427 59.6461C197.383 60.3888 197.537 61.1292 197.87 61.7678C198.018 61.9984 198.213 62.1841 198.437 62.3085C198.661 62.433 198.909 62.4925 199.158 62.4818H199.18Z" fill="#231F20"/>
    <path d="M76.5134 43.0961L66.1246 31.8044C66.0129 31.6895 65.87 31.6227 65.7203 31.6153C65.5705 31.6078 65.4231 31.6602 65.3032 31.7636L62.6394 34.1453C62.5688 34.2105 62.5115 34.2927 62.4716 34.3861C62.4317 34.4795 62.4102 34.5819 62.4086 34.686V42.6014C62.4098 42.6945 62.395 42.7869 62.365 42.8734C62.3351 42.96 62.2906 43.0389 62.2341 43.1056C62.1777 43.1724 62.1103 43.2258 62.0358 43.2626C61.9614 43.2995 61.8814 43.3191 61.8004 43.3205H59.6338C59.5517 43.3224 59.4701 43.3053 59.3938 43.2703C59.3175 43.2352 59.2482 43.1829 59.1898 43.1165C59.0746 42.9795 59.0095 42.7969 59.0078 42.6065V19.2122C59.0095 19.0217 59.0746 18.8392 59.1898 18.7022C59.2482 18.6357 59.3175 18.5834 59.3938 18.5483C59.4701 18.5133 59.5517 18.4962 59.6338 18.4982H61.7826C61.8636 18.4968 61.9441 18.5138 62.0194 18.5482C62.0948 18.5826 62.1634 18.6337 62.2216 18.6986C62.2797 18.7634 62.3261 18.8408 62.3582 18.9263C62.3903 19.0118 62.4074 19.1038 62.4086 19.1969V29.0707C62.4072 29.1655 62.4227 29.2595 62.454 29.3472C62.4853 29.4349 62.5318 29.5143 62.5906 29.5807C62.649 29.6474 62.7183 29.7002 62.7945 29.7361C62.8706 29.772 62.9522 29.7902 63.0346 29.7898C63.1747 29.7857 63.3112 29.7381 63.4297 29.6521L76.1626 18.2737C76.2638 18.1884 76.3844 18.1386 76.5097 18.1305C76.635 18.1223 76.7596 18.1562 76.8685 18.2278L78.0761 19.1306C78.2072 19.2394 78.2995 19.3989 78.3363 19.5798C78.373 19.7607 78.3515 19.9507 78.2759 20.1149C78.236 20.1608 78.196 20.2526 78.1161 20.2934L68.5042 28.8361C68.3782 28.9525 68.2959 29.1202 68.2744 29.3043C68.2529 29.4885 68.2939 29.6751 68.3888 29.8255C68.3888 29.8714 68.4288 29.8714 68.4687 29.9173L79.5989 42.0658C79.6581 42.1272 79.7062 42.2015 79.7403 42.2843C79.7743 42.3671 79.7938 42.4569 79.7975 42.5484C79.8012 42.64 79.7891 42.7314 79.7619 42.8175C79.7347 42.9036 79.6929 42.9827 79.6389 43.0502C79.5832 43.1222 79.5148 43.1799 79.4383 43.2195C79.3618 43.259 79.2788 43.2795 79.1949 43.2797H76.8863C76.7419 43.2636 76.6047 43.1999 76.4912 43.0961H76.5134ZM100.661 18.896L111.289 42.1525C111.326 42.2321 111.349 42.3194 111.357 42.4093C111.364 42.4992 111.356 42.5899 111.333 42.6762C111.31 42.7625 111.272 42.8427 111.222 42.9122C111.172 42.9816 111.11 43.0389 111.041 43.0808H111.014C110.934 43.1267 110.899 43.1267 110.819 43.1726L108.785 43.4429C108.662 43.4594 108.537 43.4339 108.427 43.3695C108.316 43.305 108.225 43.2046 108.164 43.0808L105.273 36.6036C105.225 36.4877 105.146 36.3915 105.049 36.3278C104.951 36.264 104.839 36.2357 104.727 36.2466H93.1843C93.0687 36.2438 92.955 36.2806 92.8578 36.3524C92.7605 36.4242 92.6841 36.5276 92.6382 36.6495L89.9433 42.8564C89.8898 42.9714 89.8115 43.0689 89.7159 43.1394C89.6203 43.2099 89.5106 43.2512 89.3973 43.2593H87.4616C87.3805 43.2606 87.3 43.2436 87.2247 43.2092C87.1494 43.1748 87.0807 43.1238 87.0226 43.0589C86.9644 42.994 86.918 42.9166 86.8859 42.8311C86.8538 42.7456 86.8367 42.6536 86.8356 42.5606C86.844 42.4502 86.8712 42.3428 86.9155 42.2443L97.1267 18.9011C97.1793 18.7847 97.2573 18.686 97.353 18.6145C97.4487 18.543 97.5588 18.5012 97.6728 18.493H100.172C100.277 18.5164 100.377 18.5648 100.465 18.635C100.553 18.7053 100.627 18.7959 100.683 18.9011L100.661 18.896ZM98.2766 23.532L94.1743 32.8856C94.1372 32.9652 94.1142 33.0525 94.1066 33.1424C94.099 33.2322 94.107 33.323 94.1301 33.4093C94.1533 33.4956 94.191 33.5758 94.2413 33.6452C94.2915 33.7147 94.3533 33.772 94.4229 33.8138H94.4496C94.5335 33.8652 94.6256 33.8964 94.7204 33.9056H103.085C103.167 33.9072 103.249 33.8894 103.325 33.8535C103.402 33.8176 103.471 33.7641 103.529 33.6965C103.587 33.6295 103.632 33.5499 103.663 33.4622C103.693 33.3746 103.708 33.2809 103.706 33.1865C103.707 33.0784 103.681 32.9722 103.631 32.8805L99.3732 23.5218C99.3382 23.4394 99.2893 23.3659 99.2294 23.3053C99.1696 23.2448 99.0999 23.1985 99.0243 23.1691C98.9488 23.1397 98.8689 23.1278 98.7893 23.1341C98.7098 23.1403 98.632 23.1646 98.5607 23.2056H98.5341C98.4166 23.2766 98.3206 23.3869 98.2588 23.5218L98.2766 23.532Z" fill="white"/>
    <path d="M119.375 42.5606V19.2122C119.374 19.1171 119.389 19.0228 119.42 18.9346C119.451 18.8465 119.497 18.7663 119.555 18.6989C119.614 18.6314 119.683 18.578 119.76 18.5418C119.836 18.5056 119.918 18.4873 120.001 18.488H121.839C121.923 18.4905 122.005 18.5121 122.081 18.5515C122.157 18.5909 122.226 18.6473 122.283 18.7175L136.348 35.2674L137.009 36.1701C137.059 36.244 137.121 36.3053 137.192 36.3503C137.263 36.3953 137.342 36.423 137.423 36.4316C137.503 36.4402 137.585 36.4296 137.662 36.4004C137.739 36.3712 137.81 36.3241 137.871 36.2619C137.942 36.195 137.999 36.1088 138.034 36.0109C138.07 35.913 138.084 35.8065 138.075 35.7009V19.2122C138.074 19.118 138.09 19.0246 138.121 18.9374C138.152 18.8502 138.198 18.7708 138.255 18.704C138.313 18.6372 138.382 18.5841 138.458 18.5479C138.533 18.5117 138.614 18.4931 138.696 18.4931H140.89C140.97 18.4917 141.051 18.5088 141.126 18.5432C141.201 18.5777 141.269 18.6288 141.327 18.6938C141.385 18.7587 141.431 18.8362 141.462 18.9216C141.494 19.0071 141.511 19.0989 141.511 19.1918V42.5606C141.512 42.6537 141.498 42.7461 141.468 42.8326C141.438 42.9192 141.393 42.9981 141.337 43.0649C141.28 43.1316 141.213 43.185 141.138 43.2218C141.064 43.2587 140.984 43.2784 140.903 43.2797H139.012C138.844 43.2742 138.685 43.1937 138.568 43.0553L123.912 25.419C123.813 25.2713 123.667 25.1741 123.506 25.1484C123.345 25.1226 123.182 25.1703 123.051 25.2813C122.975 25.3528 122.915 25.4433 122.874 25.5458C122.833 25.6484 122.813 25.7603 122.816 25.8729V42.5606C122.816 42.6552 122.8 42.7489 122.769 42.8364C122.738 42.9239 122.692 43.0035 122.634 43.0706C122.576 43.1382 122.507 43.1916 122.43 43.2276C122.354 43.2635 122.272 43.2812 122.19 43.2797H120.041C119.956 43.2852 119.87 43.2708 119.79 43.2372C119.71 43.2036 119.636 43.1516 119.574 43.0843C119.511 43.017 119.462 42.9359 119.428 42.8459C119.393 42.7558 119.376 42.6588 119.375 42.5606Z" fill="white"/>
    <path d="M152.312 42.5606V19.2122C152.314 19.0217 152.379 18.8392 152.495 18.7022C152.613 18.5684 152.772 18.4934 152.938 18.4931H155.087C155.17 18.4927 155.251 18.5109 155.327 18.5468C155.404 18.5827 155.473 18.6355 155.531 18.7022C155.646 18.8392 155.712 19.0217 155.713 19.2122V42.5606C155.712 42.7512 155.647 42.9339 155.531 43.0706C155.473 43.1373 155.404 43.1901 155.327 43.2259C155.251 43.2618 155.17 43.2801 155.087 43.2797H152.938C152.856 43.2807 152.774 43.2627 152.698 43.2267C152.622 43.1908 152.553 43.1377 152.495 43.0706C152.379 42.9339 152.314 42.7512 152.312 42.5606V42.5606ZM166.102 42.5606V19.2122C166.098 19.0276 166.158 18.8486 166.267 18.7133C166.376 18.5781 166.528 18.4972 166.688 18.488H168.526C168.61 18.4899 168.692 18.5113 168.768 18.5507C168.845 18.5902 168.913 18.6469 168.97 18.7175L183.035 35.2674L183.696 36.1701C183.746 36.2434 183.809 36.3041 183.88 36.3487C183.951 36.3932 184.029 36.4207 184.11 36.4293C184.19 36.4378 184.272 36.4274 184.349 36.3987C184.426 36.3699 184.497 36.3234 184.558 36.2619C184.632 36.1966 184.691 36.1113 184.73 36.0134C184.769 35.9155 184.786 35.8082 184.78 35.7009V19.2122C184.779 19.118 184.795 19.0246 184.826 18.9374C184.857 18.8502 184.902 18.7709 184.96 18.704C185.018 18.6372 185.087 18.5841 185.162 18.5479C185.238 18.5117 185.319 18.4931 185.401 18.4931H187.594C187.675 18.4917 187.756 18.5088 187.831 18.5432C187.906 18.5777 187.974 18.6288 188.032 18.6938C188.09 18.7587 188.136 18.8362 188.167 18.9216C188.199 19.0071 188.215 19.0989 188.216 19.1918V42.5606C188.218 42.7477 188.156 42.9284 188.043 43.0631C187.93 43.1978 187.775 43.2757 187.612 43.2797H185.756C185.588 43.2753 185.429 43.1946 185.312 43.0553L170.635 25.419C170.536 25.2702 170.39 25.1721 170.229 25.1463C170.068 25.1205 169.904 25.1691 169.774 25.2813C169.699 25.3526 169.639 25.4424 169.599 25.544C169.559 25.6456 169.54 25.7564 169.543 25.8679V42.5606C169.542 42.7512 169.476 42.9339 169.361 43.0706C169.303 43.1382 169.234 43.1916 169.158 43.2276C169.081 43.2635 168.999 43.2812 168.917 43.2797H166.728C166.646 43.2801 166.564 43.2618 166.488 43.2259C166.412 43.1901 166.342 43.1373 166.284 43.0706C166.168 42.9339 166.103 42.7512 166.102 42.5606V42.5606ZM198.614 42.5606V19.2122C198.612 19.1179 198.628 19.0243 198.658 18.9368C198.689 18.8492 198.734 18.7695 198.791 18.7022C198.91 18.5694 199.069 18.4944 199.235 18.4931H201.384C201.547 18.493 201.703 18.5662 201.819 18.6968C201.935 18.8274 202.002 19.0051 202.006 19.1918V42.5606C202.007 42.6537 201.992 42.7461 201.962 42.8327C201.932 42.9192 201.888 42.9981 201.831 43.0649C201.775 43.1316 201.707 43.185 201.633 43.2218C201.558 43.2587 201.478 43.2784 201.397 43.2797H199.231C199.065 43.2783 198.906 43.2034 198.787 43.0706C198.73 43.0028 198.686 42.9229 198.656 42.8354C198.626 42.7479 198.612 42.6545 198.614 42.5606V42.5606Z" fill="white"/>
    <path d="M76.5134 43.0502L66.1246 31.7636C66.0138 31.6471 65.8711 31.5787 65.7211 31.5703C65.5711 31.562 65.4233 31.6141 65.3032 31.7177L62.6394 34.0994C62.5688 34.1646 62.5115 34.2468 62.4716 34.3402C62.4317 34.4336 62.4102 34.536 62.4086 34.6401V42.5606C62.4098 42.6536 62.395 42.7461 62.365 42.8326C62.3351 42.9192 62.2906 42.9981 62.2341 43.0648C62.1777 43.1316 62.1103 43.185 62.0358 43.2218C61.9614 43.2587 61.8814 43.2783 61.8004 43.2797H59.6338C59.4677 43.2794 59.3083 43.2043 59.1898 43.0706C59.0742 42.9339 59.009 42.7511 59.0078 42.5606V19.2122C59.0095 19.0217 59.0746 18.8392 59.1898 18.7022C59.3083 18.5684 59.4677 18.4933 59.6338 18.493H61.7826C61.9467 18.4917 62.1046 18.5649 62.2218 18.6968C62.3391 18.8286 62.4063 19.0084 62.4086 19.1969V29.0707C62.4072 29.1655 62.4227 29.2595 62.454 29.3472C62.4853 29.4349 62.5318 29.5143 62.5906 29.5807C62.649 29.6474 62.7183 29.7002 62.7945 29.7361C62.8706 29.772 62.9522 29.7902 63.0346 29.7898C63.1747 29.7857 63.3112 29.7381 63.4297 29.6521L76.1626 18.2737C76.2638 18.1884 76.3844 18.1386 76.5097 18.1305C76.635 18.1223 76.7596 18.1562 76.8685 18.2278L78.0761 19.1306C78.2072 19.2394 78.2995 19.3989 78.3363 19.5798C78.373 19.7607 78.3515 19.9507 78.2759 20.1149C78.236 20.1608 78.196 20.2526 78.1161 20.2934L68.5042 28.8361C68.3782 28.9525 68.2959 29.1202 68.2744 29.3043C68.2529 29.4885 68.2939 29.6751 68.3888 29.8255L68.4687 29.9173L79.5989 42.0658C79.6581 42.1272 79.7062 42.2015 79.7403 42.2843C79.7743 42.3671 79.7938 42.4569 79.7975 42.5484C79.8012 42.64 79.7891 42.7314 79.7619 42.8175C79.7347 42.9036 79.6929 42.9827 79.6389 43.0502C79.5832 43.1222 79.5148 43.1799 79.4383 43.2195C79.3618 43.259 79.2788 43.2795 79.1949 43.2797H76.8863C76.8105 43.2732 76.7366 43.2496 76.6688 43.2102C76.601 43.1708 76.5406 43.1164 76.4912 43.0502H76.5134ZM100.661 18.896L111.289 42.1525C111.326 42.2321 111.349 42.3194 111.357 42.4093C111.364 42.4992 111.356 42.5899 111.333 42.6762C111.31 42.7625 111.272 42.8427 111.222 42.9122C111.172 42.9816 111.11 43.0389 111.041 43.0808H111.014C110.934 43.1267 110.899 43.1267 110.819 43.1726L108.785 43.4429C108.662 43.4594 108.537 43.4339 108.427 43.3695C108.316 43.305 108.225 43.2046 108.164 43.0808L105.273 36.6495C105.219 36.5389 105.139 36.4473 105.043 36.3845C104.947 36.3216 104.838 36.2898 104.727 36.2925H93.1843C93.0687 36.2897 92.955 36.3265 92.8578 36.3983C92.7605 36.4701 92.6841 36.5735 92.6382 36.6954L89.9433 42.8564C89.8898 42.9714 89.8115 43.0689 89.7159 43.1394C89.6203 43.2099 89.5106 43.2512 89.3973 43.2593H87.4616C87.3805 43.2606 87.3 43.2436 87.2247 43.2092C87.1494 43.1748 87.0807 43.1237 87.0226 43.0589C86.9644 42.994 86.918 42.9166 86.8859 42.8311C86.8538 42.7456 86.8367 42.6536 86.8356 42.5606C86.844 42.4502 86.8712 42.3428 86.9155 42.2443L97.1267 18.9011C97.1793 18.7847 97.2573 18.686 97.353 18.6145C97.4487 18.543 97.5588 18.5012 97.6728 18.493H100.172C100.28 18.5073 100.383 18.5521 100.472 18.6233C100.561 18.6945 100.634 18.7899 100.683 18.9011L100.661 18.896ZM98.2766 23.532L94.1743 32.8856C94.1372 32.9652 94.1142 33.0525 94.1066 33.1424C94.099 33.2322 94.107 33.323 94.1301 33.4093C94.1533 33.4956 94.191 33.5758 94.2413 33.6452C94.2915 33.7147 94.3533 33.772 94.4229 33.8138H94.4496C94.5335 33.8652 94.6256 33.8964 94.7204 33.9056H103.085C103.167 33.9072 103.249 33.8894 103.325 33.8535C103.402 33.8176 103.471 33.7641 103.529 33.6965C103.587 33.6295 103.632 33.5499 103.663 33.4622C103.693 33.3746 103.708 33.2809 103.706 33.1865C103.707 33.0784 103.681 32.9722 103.631 32.8805L99.3732 23.5218C99.3382 23.4394 99.2893 23.3659 99.2294 23.3053C99.1696 23.2448 99.0999 23.1985 99.0243 23.1691C98.9488 23.1397 98.8689 23.1278 98.7893 23.1341C98.7098 23.1403 98.632 23.1646 98.5607 23.2056H98.5341C98.4166 23.2766 98.3206 23.3869 98.2588 23.5218L98.2766 23.532Z" fill="black"/>
    <path d="M119.375 42.5606V19.2122C119.374 19.1171 119.389 19.0228 119.42 18.9346C119.451 18.8465 119.497 18.7663 119.555 18.6989C119.614 18.6314 119.683 18.578 119.76 18.5418C119.836 18.5056 119.918 18.4873 120.001 18.488H121.839C121.923 18.4905 122.005 18.5121 122.081 18.5515C122.157 18.5909 122.226 18.6473 122.283 18.7175L136.348 35.2674L137.009 36.1701C137.059 36.244 137.121 36.3053 137.192 36.3503C137.263 36.3953 137.342 36.423 137.423 36.4316C137.503 36.4402 137.585 36.4296 137.662 36.4004C137.739 36.3712 137.81 36.3241 137.871 36.2619C137.942 36.195 137.999 36.1088 138.034 36.0109C138.07 35.913 138.084 35.8065 138.075 35.7009V19.2122C138.074 19.118 138.09 19.0246 138.121 18.9374C138.152 18.8502 138.198 18.7708 138.255 18.704C138.313 18.6372 138.382 18.5841 138.458 18.5479C138.533 18.5117 138.614 18.4931 138.696 18.4931H140.89C140.97 18.4917 141.051 18.5088 141.126 18.5432C141.201 18.5777 141.269 18.6288 141.327 18.6938C141.385 18.7587 141.431 18.8362 141.462 18.9216C141.494 19.0071 141.511 19.0989 141.511 19.1918V42.5606C141.512 42.6537 141.498 42.7461 141.468 42.8326C141.438 42.9192 141.393 42.9981 141.337 43.0649C141.28 43.1316 141.213 43.185 141.138 43.2218C141.064 43.2587 140.984 43.2784 140.903 43.2797H139.012C138.844 43.2742 138.685 43.1937 138.568 43.0553L123.912 25.419C123.813 25.2713 123.667 25.1741 123.506 25.1484C123.345 25.1226 123.182 25.1703 123.051 25.2813C122.975 25.3528 122.915 25.4433 122.874 25.5458C122.833 25.6484 122.813 25.7603 122.816 25.8729V42.5606C122.816 42.6552 122.8 42.7489 122.769 42.8364C122.738 42.9239 122.692 43.0035 122.634 43.0706C122.576 43.1382 122.507 43.1916 122.43 43.2276C122.354 43.2635 122.272 43.2812 122.19 43.2797H120.041C119.956 43.2852 119.87 43.2708 119.79 43.2372C119.71 43.2036 119.636 43.1516 119.574 43.0843C119.511 43.017 119.462 42.9359 119.428 42.8459C119.393 42.7558 119.376 42.6588 119.375 42.5606Z" fill="black"/>
    <path d="M152.312 42.5606V19.2122C152.314 19.0217 152.379 18.8392 152.495 18.7022C152.613 18.5684 152.772 18.4934 152.938 18.4931H155.087C155.17 18.4927 155.251 18.5109 155.327 18.5468C155.404 18.5827 155.473 18.6355 155.531 18.7022C155.646 18.8392 155.712 19.0217 155.713 19.2122V42.5606C155.712 42.7512 155.647 42.9339 155.531 43.0706C155.473 43.1373 155.404 43.1901 155.327 43.2259C155.251 43.2618 155.17 43.2801 155.087 43.2797H152.938C152.856 43.2806 152.774 43.2626 152.698 43.2267C152.622 43.1908 152.553 43.1377 152.495 43.0706C152.379 42.9339 152.314 42.7512 152.312 42.5606V42.5606ZM166.102 42.5606V19.2122C166.098 19.0276 166.158 18.8486 166.267 18.7133C166.376 18.5781 166.528 18.4972 166.688 18.488H168.526C168.61 18.4899 168.692 18.5113 168.768 18.5507C168.845 18.5901 168.913 18.6469 168.97 18.7175L183.035 35.2674L183.696 36.1701C183.746 36.2433 183.809 36.3041 183.88 36.3487C183.951 36.3932 184.029 36.4206 184.11 36.4292C184.19 36.4378 184.272 36.4274 184.349 36.3987C184.426 36.3699 184.497 36.3233 184.558 36.2619C184.632 36.1966 184.691 36.1113 184.73 36.0134C184.769 35.9155 184.786 35.8082 184.78 35.7009V19.2122C184.779 19.118 184.795 19.0246 184.826 18.9374C184.857 18.8502 184.902 18.7708 184.96 18.704C185.018 18.6372 185.087 18.5841 185.162 18.5479C185.238 18.5117 185.319 18.4931 185.401 18.4931H187.594C187.675 18.4917 187.756 18.5088 187.831 18.5432C187.906 18.5777 187.974 18.6288 188.032 18.6938C188.09 18.7587 188.136 18.8362 188.167 18.9216C188.199 19.0071 188.215 19.0989 188.216 19.1918V42.5606C188.218 42.7477 188.156 42.9284 188.043 43.0631C187.93 43.1978 187.775 43.2757 187.612 43.2797H185.756C185.588 43.2753 185.429 43.1946 185.312 43.0553L170.635 25.419C170.536 25.2701 170.39 25.1721 170.229 25.1463C170.068 25.1205 169.904 25.169 169.774 25.2813C169.699 25.3525 169.639 25.4424 169.599 25.544C169.559 25.6456 169.54 25.7564 169.543 25.8678V42.5606C169.542 42.7512 169.476 42.9339 169.361 43.0706C169.303 43.1382 169.234 43.1916 169.158 43.2275C169.081 43.2635 168.999 43.2812 168.917 43.2797H166.728C166.566 43.2666 166.413 43.1867 166.298 43.0545C166.183 42.9224 166.113 42.747 166.102 42.5606V42.5606ZM198.609 42.5606V19.2122C198.608 19.1171 198.623 19.0228 198.654 18.9346C198.685 18.8465 198.731 18.7663 198.79 18.6989C198.848 18.6314 198.917 18.578 198.994 18.5418C199.07 18.5056 199.152 18.4873 199.235 18.488H201.384C201.547 18.4879 201.704 18.5618 201.82 18.6935C201.937 18.8252 202.003 19.0042 202.006 19.1918V42.5606C202.007 42.6537 201.992 42.7461 201.962 42.8326C201.932 42.9192 201.888 42.9981 201.831 43.0649C201.775 43.1316 201.707 43.185 201.633 43.2218C201.558 43.2587 201.478 43.2784 201.397 43.2797H199.231C199.148 43.2804 199.067 43.2622 198.991 43.2263C198.914 43.1904 198.845 43.1375 198.787 43.0706C198.729 43.0037 198.682 42.9241 198.651 42.8366C198.62 42.749 198.604 42.6552 198.605 42.5606H198.609Z" fill="black"/>
    <path d="M5.404 32.7785H18.6475C19.0964 32.7805 19.5406 32.8841 19.9547 33.0833C20.3688 33.2825 20.7447 33.5734 21.0609 33.9395C21.3771 34.3056 21.6274 34.7397 21.7976 35.2169C21.9678 35.6941 22.0545 36.2052 22.0527 36.7209V51.9499C22.0539 52.4665 21.9663 52.9782 21.795 53.4559C21.6238 53.9335 21.3721 54.3676 21.0546 54.7334C20.737 55.0991 20.3598 55.3893 19.9444 55.5873C19.5291 55.7853 19.0839 55.8872 18.6342 55.8872H18.5099C18.06 55.8879 17.6145 55.7864 17.1989 55.5886C16.7833 55.3909 16.4058 55.1007 16.0881 54.7349C15.7705 54.369 15.5189 53.9346 15.3478 53.4566C15.1767 52.9787 15.0896 52.4666 15.0913 51.9499V40.7296H5.404C4.51111 40.6928 3.66548 40.2594 3.04513 39.5208C2.42479 38.7821 2.07812 37.7957 2.07813 36.7694C2.07812 35.743 2.42479 34.7566 3.04513 34.0179C3.66548 33.2793 4.51111 32.8459 5.404 32.8091V32.7785Z" fill="#0088CE"/>
    <path d="M42.4032 28.8871H29.173C28.7228 28.8885 28.2768 28.7875 27.8607 28.5901C27.4446 28.3926 27.0665 28.1026 26.7484 27.7366C26.4303 27.3707 26.1783 26.936 26.0069 26.4578C25.8356 25.9795 25.7483 25.467 25.75 24.9498V9.72084C25.7477 8.68019 26.105 7.68101 26.7434 6.94277C27.3819 6.20453 28.2494 5.78759 29.1552 5.78354H29.3017C29.7516 5.78287 30.1971 5.88432 30.6127 6.08207C31.0283 6.27983 31.4058 6.56998 31.7235 6.93586C32.0411 7.30175 32.2927 7.73614 32.4638 8.21408C32.6349 8.69202 32.722 9.20408 32.7203 9.72084V21.0176H42.4032C43.2902 21.0543 44.1303 21.4849 44.7466 22.2188C45.3629 22.9527 45.7072 23.9327 45.7072 24.9524C45.7072 25.9721 45.3629 26.952 44.7466 27.6859C44.1303 28.4198 43.2902 28.8504 42.4032 28.8871V28.8871Z" fill="#00A8E4"/>
    <path d="M3.20735 13.3776L39.0709 54.5714C39.7927 55.4004 40.7717 55.8662 41.7924 55.8662C42.8131 55.8662 43.7921 55.4004 44.5139 54.5714V54.5714C45.237 53.7378 45.6429 52.609 45.6429 51.4322C45.6429 50.2555 45.237 49.1267 44.5139 48.2931L8.69921 6.98208C7.97961 6.17016 7.01554 5.70768 6.00701 5.69059C4.99849 5.67349 4.02296 6.1031 3.28283 6.89027C2.90102 7.29023 2.5925 7.77367 2.37534 8.31229C2.15818 8.85092 2.03675 9.43389 2.01814 10.0271C1.99954 10.6203 2.08414 11.2118 2.26699 11.767C2.44985 12.3222 2.72728 12.8298 3.08304 13.2603L3.20735 13.3776Z" fill="#BDDA57"/>
    <path d="M18.5489 32.7785H18.6465C19.5336 32.8152 20.3737 33.2458 20.99 33.9797C21.6062 34.7136 21.9506 35.6935 21.9506 36.7133C21.9506 37.733 21.6062 38.7129 20.99 39.4468C20.3737 40.1807 19.5336 40.6113 18.6465 40.648H15.1303C15.0859 40.648 15.0859 40.648 15.0859 40.6021V36.7209C15.093 35.6721 15.4612 34.6691 16.1101 33.9313C16.759 33.1935 17.6359 32.7809 18.5489 32.7836V32.7785Z" fill="#00A8E4"/>
    <path d="M29.2991 28.8871H29.2103C28.3233 28.8504 27.4832 28.4198 26.8669 27.6859C26.2506 26.952 25.9062 25.9721 25.9062 24.9524C25.9062 23.9327 26.2506 22.9527 26.8669 22.2188C27.4832 21.485 28.3233 21.0543 29.2103 21.0176H32.7621V24.9498C32.7562 25.9991 32.3883 27.0028 31.7392 27.7409C31.09 28.479 30.2125 28.8912 29.2991 28.8871V28.8871Z" fill="#68CEF2"/>
    </svg>
    