<svg width="13" height="8" viewBox="0 0 13 8" fill="none" xmlns="http://www.w3.org/2000/svg">
                <path d="M1.0333 1.06748C1.20475 0.896089 1.43725 0.799805 1.67968 0.799805C1.9221 0.799805 2.1546 0.896089 2.32605 1.06748L6.85157 5.59301L11.3771 1.06748C11.5495 0.900946 11.7805 0.808795 12.0202 0.810878C12.2599 0.812961 12.4892 0.909112 12.6587 1.07862C12.8282 1.24813 12.9244 1.47743 12.9264 1.71715C12.9285 1.95686 12.8364 2.1878 12.6698 2.36023L7.49794 7.53213C7.3265 7.70352 7.094 7.7998 6.85157 7.7998C6.60915 7.7998 6.37665 7.70352 6.2052 7.53213L1.0333 2.36023C0.861909 2.18878 0.765625 1.95628 0.765625 1.71386C0.765625 1.47143 0.861909 1.23893 1.0333 1.06748Z" fill="#242D35"/>
                </svg>