<svg width="57" height="56" viewBox="0 0 57 56" fill="none" xmlns="http://www.w3.org/2000/svg">
<path d="M8.8093 8.17655C3.58286 13.4071 0.650517 20.5052 0.657363 27.9092C0.664211 35.3133 3.60968 42.4168 8.84581 47.6571C14.0819 52.8974 21.1798 55.8452 28.5779 55.852C35.9761 55.8589 43.0685 52.9242 48.295 47.6936C53.5214 42.463 56.4537 35.3649 56.4469 27.9609C56.4401 20.5569 53.4946 13.4534 48.2585 8.21309C43.0223 2.9728 35.9245 0.0249879 28.5263 0.0181362C21.1282 0.0112849 14.0357 2.94595 8.8093 8.17655L8.8093 8.17655ZM16.4749 29.6684C16.2434 29.6723 16.0135 29.6299 15.7984 29.5438C15.5833 29.4578 15.3874 29.3297 15.2221 29.1672C15.0569 29.0046 14.9255 28.8108 14.8358 28.5971C14.7461 28.3833 14.6998 28.1539 14.6996 27.9222C14.6994 27.6906 14.7453 27.4612 14.8346 27.2477C14.9239 27.0341 15.0549 26.8405 15.2198 26.6783C15.3848 26.5161 15.5804 26.3884 15.7954 26.3027C16.0103 26.217 16.2402 26.1751 16.4717 26.1793L36.6696 26.1981L29.8386 19.3616C29.5114 19.0341 29.3273 18.5901 29.3268 18.1274C29.3264 17.6646 29.5097 17.221 29.8363 16.8941C30.163 16.5672 30.6063 16.3837 31.0687 16.3842C31.531 16.3846 31.9747 16.5688 32.3019 16.8964L42.1116 26.7139C42.4389 27.0414 42.623 27.4854 42.6234 27.9481C42.6238 28.4109 42.4406 28.8545 42.1139 29.1814L32.3223 38.9808C31.9957 39.3077 31.5524 39.4911 31.09 39.4907C30.6276 39.4902 30.184 39.306 29.8568 38.9785C29.5295 38.651 29.3454 38.207 29.345 37.7442C29.3446 37.2815 29.5278 36.8379 29.8545 36.511L36.6729 29.6871L16.4749 29.6684Z" fill="#AAD064"/>
</svg>
