<svg width="40" height="40" viewBox="0 0 40 40" fill="none" xmlns="http://www.w3.org/2000/svg">
<path d="M10.8693 17.2533L12.1893 17.44L10.8693 17.2533ZM10.8427 17.44L9.52267 17.2533L10.8427 17.44ZM29.1307 17.2533L30.4507 17.0667L29.1307 17.2533ZM29.1573 17.44L27.8373 17.6267L29.1573 17.44ZM25.3333 33.3333V34.6667C25.687 34.6667 26.0261 34.5262 26.2761 34.2761C26.5262 34.0261 26.6667 33.687 26.6667 33.3333H25.3333ZM14.6667 33.3333H13.3333C13.3333 33.687 13.4738 34.0261 13.7239 34.2761C13.9739 34.5262 14.313 34.6667 14.6667 34.6667V33.3333ZM12.68 24.408L13.736 23.592L12.68 24.408ZM27.32 24.408L26.264 23.592L27.32 24.408ZM16 40H24V37.3333H16V40ZM9.54667 17.0667L9.52 17.2533L12.16 17.6267L12.1867 17.44L9.54667 17.0667ZM20 8C17.458 7.99957 15.0011 8.91636 13.0808 10.582C11.1605 12.2476 9.90559 14.5501 9.54667 17.0667L12.1867 17.44C12.4556 15.5596 13.3939 13.8394 14.8292 12.5951C16.2645 11.3509 18.1005 10.6661 20 10.6667V8ZM30.4533 17.0667C30.0944 14.5501 28.8395 12.2476 26.9192 10.582C24.9989 8.91636 22.542 7.99957 20 8V10.6667C21.8994 10.6667 23.7351 11.3516 25.1702 12.5958C26.6054 13.8399 27.5438 15.5598 27.8133 17.44L30.4533 17.0667ZM30.48 17.2533L30.4533 17.0667L27.8133 17.44L27.84 17.6267L30.48 17.2533ZM28.3733 25.224C30.0533 23.0533 30.9013 20.224 30.48 17.2507L27.84 17.6293C27.9927 18.6779 27.9321 19.7466 27.6617 20.7712C27.3914 21.7958 26.9169 22.7553 26.2667 23.592L28.3733 25.224ZM24 29.0667V33.3333H26.6667V29.0693H24V29.0667ZM25.3333 32H14.6667V34.6667H25.3333V32ZM16 33.3333V29.0693H13.3333V33.3333H16ZM9.52 17.2533C9.31729 18.6553 9.39938 20.0838 9.76134 21.4533C10.1233 22.8228 10.7577 24.1053 11.6267 25.224L13.7333 23.592C13.0831 22.7553 12.6086 21.7958 12.3383 20.7712C12.0679 19.7466 12.0073 18.6779 12.16 17.6293L9.52 17.2507V17.2533ZM16 29.0667C16 26.872 14.832 25.0053 13.7333 23.5893L11.6267 25.2213C12.648 26.5413 13.3333 27.8027 13.3333 29.0667H16ZM26.2667 23.5893C25.1653 25.008 24 26.872 24 29.0667H26.6667C26.6667 27.8027 27.352 26.5413 28.3733 25.2213L26.2667 23.5893ZM18.6667 0V5.33333H21.3333V0H18.6667ZM0 21.3333H5.33333V18.6667H0V21.3333ZM34.6667 21.3333H40V18.6667H34.6667V21.3333ZM8.944 9.72267L4.944 5.72267L3.056 7.61067L7.056 11.6107L8.944 9.72267ZM32.944 11.6107L36.944 7.61067L35.056 5.72267L31.056 9.72267L32.944 11.6107Z" fill="#BAD881"/>
</svg>
