<svg width="36" height="32" viewBox="0 0 36 32" fill="none" xmlns="http://www.w3.org/2000/svg">
<path d="M2.64706 31.7647C1.94118 31.7647 1.32353 31.5 0.794118 30.9706C0.264706 30.4412 0 29.8235 0 29.1176V2.64706C0 1.94118 0.264706 1.32353 0.794118 0.794118C1.32353 0.264706 1.94118 0 2.64706 0H33.3529C34.0588 0 34.6765 0.264706 35.2059 0.794118C35.7353 1.32353 36 1.94118 36 2.64706V29.1176C36 29.8235 35.7353 30.4412 35.2059 30.9706C34.6765 31.5 34.0588 31.7647 33.3529 31.7647H2.64706ZM2.64706 29.1176H33.3529V2.64706H2.64706V29.1176ZM5.64706 24.7059H14.4706V21.1765H5.64706V24.7059ZM22.5 21.1765L31.2353 12.4412L28.7206 9.92647L22.5 16.1912L19.9853 13.6765L17.5147 16.1912L22.5 21.1765ZM5.64706 17.6471H14.4706V14.1176H5.64706V17.6471ZM5.64706 10.5882H14.4706V7.05882H5.64706V10.5882ZM2.64706 29.1176V2.64706V29.1176Z" fill="#1CAAE2"/>
</svg>
