<svg width="33" height="36" viewBox="0 0 33 36" fill="none" xmlns="http://www.w3.org/2000/svg">
<path d="M14.085 29.34L7.875 23.175L9.765 21.285L14.085 25.515L22.365 17.235L24.255 19.17L14.085 29.34ZM2.7 36C1.98 36 1.35 35.73 0.81 35.19C0.27 34.65 0 34.02 0 33.3V5.4C0 4.68 0.27 4.05 0.81 3.51C1.35 2.97 1.98 2.7 2.7 2.7H5.625V0H8.55V2.7H23.85V0H26.775V2.7H29.7C30.42 2.7 31.05 2.97 31.59 3.51C32.13 4.05 32.4 4.68 32.4 5.4V33.3C32.4 34.02 32.13 34.65 31.59 35.19C31.05 35.73 30.42 36 29.7 36H2.7ZM2.7 33.3H29.7V13.95H2.7V33.3ZM2.7 11.25H29.7V5.4H2.7V11.25ZM2.7 11.25V5.4V11.25Z" fill="#1CAAE2"/>
</svg>
